<svg width="134" height="22" viewBox="0 0 134 22" fill="none" xmlns="http://www.w3.org/2000/svg">
<g filter="url(#filter0_d_119_34)">
<mask id="path-1-outside-1_119_34" maskUnits="userSpaceOnUse" x="3" y="-1" width="128" height="16" fill="black">
<rect fill="white" x="3" y="-1" width="128" height="16"/>
<path d="M15.8022 4.80788H13.5444C13.48 4.43762 13.3613 4.10961 13.1882 3.82386C13.0152 3.53409 12.7998 3.28859 12.5423 3.08736C12.2847 2.88613 11.9909 2.7352 11.6609 2.63459C11.3349 2.52995 10.9827 2.47763 10.6044 2.47763C9.93229 2.47763 9.33665 2.64666 8.81747 2.98473C8.2983 3.31877 7.89181 3.80978 7.59801 4.45774C7.30421 5.10168 7.15732 5.88849 7.15732 6.81818C7.15732 7.76397 7.30421 8.56084 7.59801 9.20881C7.89583 9.85275 8.30232 10.3397 8.81747 10.6697C9.33665 10.9957 9.93028 11.1587 10.5984 11.1587C10.9686 11.1587 11.3147 11.1104 11.6367 11.0138C11.9627 10.9132 12.2545 10.7663 12.5121 10.5732C12.7737 10.38 12.993 10.1425 13.1701 9.8608C13.3512 9.57907 13.476 9.2571 13.5444 8.89489L15.8022 8.90696C15.7177 9.49455 15.5346 10.0459 15.2528 10.5611C14.9751 11.0762 14.6109 11.531 14.1602 11.9254C13.7094 12.3158 13.1822 12.6217 12.5785 12.843C11.9748 13.0604 11.3047 13.169 10.5682 13.169C9.48153 13.169 8.5116 12.9175 7.65838 12.4144C6.80516 11.9113 6.13305 11.1849 5.64205 10.2351C5.15104 9.28527 4.90554 8.14631 4.90554 6.81818C4.90554 5.48603 5.15305 4.34706 5.64808 3.40128C6.14311 2.45147 6.81723 1.72502 7.67045 1.22195C8.52367 0.718868 9.48958 0.467329 10.5682 0.467329C11.2564 0.467329 11.8963 0.56392 12.4879 0.757102C13.0795 0.950284 13.6068 1.23402 14.0696 1.60831C14.5324 1.97857 14.9128 2.43336 15.2106 2.97266C15.5124 3.50793 15.7096 4.11967 15.8022 4.80788ZM21.8014 13.1811C20.8959 13.1811 20.1111 12.9819 19.447 12.5835C18.7829 12.185 18.2678 11.6276 17.9015 10.9112C17.5393 10.1948 17.3582 9.35772 17.3582 8.39986C17.3582 7.442 17.5393 6.60286 17.9015 5.88246C18.2678 5.16205 18.7829 4.60263 19.447 4.20419C20.1111 3.80575 20.8959 3.60653 21.8014 3.60653C22.7069 3.60653 23.4917 3.80575 24.1558 4.20419C24.8199 4.60263 25.333 5.16205 25.6952 5.88246C26.0615 6.60286 26.2446 7.442 26.2446 8.39986C26.2446 9.35772 26.0615 10.1948 25.6952 10.9112C25.333 11.6276 24.8199 12.185 24.1558 12.5835C23.4917 12.9819 22.7069 13.1811 21.8014 13.1811ZM21.8135 11.4304C22.3045 11.4304 22.715 11.2956 23.045 11.0259C23.375 10.7522 23.6205 10.386 23.7815 9.9272C23.9465 9.46839 24.029 8.95727 24.029 8.39382C24.029 7.82635 23.9465 7.31321 23.7815 6.8544C23.6205 6.39157 23.375 6.02332 23.045 5.74964C22.715 5.47597 22.3045 5.33913 21.8135 5.33913C21.3104 5.33913 20.8918 5.47597 20.5578 5.74964C20.2278 6.02332 19.9803 6.39157 19.8153 6.8544C19.6543 7.31321 19.5738 7.82635 19.5738 8.39382C19.5738 8.95727 19.6543 9.46839 19.8153 9.9272C19.9803 10.386 20.2278 10.7522 20.5578 11.0259C20.8918 11.2956 21.3104 11.4304 21.8135 11.4304ZM30.2848 7.56676V13H28.0994V3.72727H30.1882V5.30291H30.2969C30.5102 4.78374 30.8503 4.37121 31.3171 4.06534C31.788 3.75947 32.3696 3.60653 33.0618 3.60653C33.7017 3.60653 34.2591 3.74337 34.734 4.01704C35.213 4.29072 35.5832 4.68714 35.8448 5.20632C36.1104 5.7255 36.2412 6.35535 36.2372 7.09588V13H34.0518V7.43395C34.0518 6.81416 33.8909 6.32919 33.5689 5.97905C33.2509 5.62891 32.8103 5.45383 32.2468 5.45383C31.8645 5.45383 31.5244 5.53835 31.2266 5.70739C30.9328 5.8724 30.7013 6.11186 30.5323 6.42578C30.3673 6.7397 30.2848 7.12003 30.2848 7.56676ZM40.6442 7.56676V13H38.4588V3.72727H40.5476V5.30291H40.6562C40.8696 4.78374 41.2096 4.37121 41.6765 4.06534C42.1474 3.75947 42.7289 3.60653 43.4212 3.60653C44.0611 3.60653 44.6185 3.74337 45.0934 4.01704C45.5723 4.29072 45.9426 4.68714 46.2042 5.20632C46.4698 5.7255 46.6006 6.35535 46.5966 7.09588V13H44.4112V7.43395C44.4112 6.81416 44.2502 6.32919 43.9283 5.97905C43.6103 5.62891 43.1696 5.45383 42.6062 5.45383C42.2238 5.45383 41.8838 5.53835 41.5859 5.70739C41.2921 5.8724 41.0607 6.11186 40.8917 6.42578C40.7267 6.7397 40.6442 7.12003 40.6442 7.56676ZM52.9233 13.1811C51.9936 13.1811 51.1907 12.9879 50.5146 12.6016C49.8424 12.2112 49.3253 11.6598 48.9631 10.9474C48.6009 10.2311 48.4197 9.3879 48.4197 8.41797C48.4197 7.46413 48.6009 6.62701 48.9631 5.9066C49.3293 5.18217 49.8404 4.61873 50.4964 4.21626C51.1525 3.80978 51.9232 3.60653 52.8086 3.60653C53.3801 3.60653 53.9194 3.6991 54.4265 3.88423C54.9376 4.06534 55.3884 4.34706 55.7788 4.7294C56.1732 5.11174 56.4831 5.59872 56.7085 6.19034C56.9338 6.77794 57.0465 7.47822 57.0465 8.29119V8.96129H49.446V7.48828H54.9517C54.9477 7.06972 54.8571 6.69744 54.68 6.37145C54.503 6.04143 54.2554 5.78184 53.9375 5.59268C53.6236 5.40353 53.2573 5.30895 52.8388 5.30895C52.392 5.30895 51.9996 5.41761 51.6616 5.63494C51.3235 5.84825 51.0599 6.12997 50.8707 6.48011C50.6856 6.82623 50.591 7.20656 50.587 7.62109V8.90696C50.587 9.44626 50.6856 9.90909 50.8828 10.2955C51.08 10.6778 51.3557 10.9716 51.7099 11.1768C52.064 11.3781 52.4786 11.4787 52.9535 11.4787C53.2714 11.4787 53.5592 11.4344 53.8168 11.3459C54.0743 11.2533 54.2977 11.1185 54.4869 10.9414C54.676 10.7643 54.8189 10.545 54.9155 10.2834L56.956 10.5128C56.8272 11.0521 56.5817 11.523 56.2195 11.9254C55.8613 12.3239 55.4025 12.6338 54.843 12.8551C54.2836 13.0724 53.6437 13.1811 52.9233 13.1811ZM62.9401 13.1811C62.0144 13.1811 61.2195 12.9779 60.5555 12.5714C59.8954 12.1649 59.3863 11.6035 59.0281 10.8871C58.674 10.1667 58.4969 9.33759 58.4969 8.39986C58.4969 7.4581 58.678 6.62701 59.0402 5.9066C59.4024 5.18217 59.9136 4.61873 60.5736 4.21626C61.2377 3.80978 62.0225 3.60653 62.928 3.60653C63.6806 3.60653 64.3467 3.74538 64.9262 4.02308C65.5098 4.29676 65.9746 4.68513 66.3208 5.18821C66.6669 5.68726 66.8641 6.27083 66.9124 6.93892H64.8236C64.7391 6.49219 64.5378 6.11991 64.2199 5.82209C63.906 5.52024 63.4854 5.36932 62.9582 5.36932C62.5115 5.36932 62.1191 5.49006 61.781 5.73153C61.4429 5.96899 61.1793 6.31108 60.9901 6.75781C60.805 7.20455 60.7124 7.73982 60.7124 8.36364C60.7124 8.9955 60.805 9.53883 60.9901 9.99361C61.1753 10.4444 61.4349 10.7925 61.7689 11.038C62.107 11.2795 62.5034 11.4002 62.9582 11.4002C63.2802 11.4002 63.5679 11.3398 63.8215 11.2191C64.079 11.0943 64.2944 10.9152 64.4674 10.6818C64.6405 10.4484 64.7592 10.1647 64.8236 9.83061H66.9124C66.8601 10.4866 66.6669 11.0682 66.3328 11.5753C65.9988 12.0784 65.544 12.4728 64.9685 12.7585C64.393 13.0402 63.7168 13.1811 62.9401 13.1811ZM73.3372 3.72727V5.41761H68.0066V3.72727H73.3372ZM69.3226 1.50568H71.508V10.2109C71.508 10.5047 71.5523 10.7301 71.6408 10.8871C71.7334 11.04 71.8541 11.1446 72.003 11.201C72.1519 11.2573 72.3169 11.2855 72.498 11.2855C72.6349 11.2855 72.7596 11.2754 72.8723 11.2553C72.9891 11.2352 73.0776 11.2171 73.138 11.201L73.5062 12.9094C73.3895 12.9497 73.2225 12.994 73.0051 13.0423C72.7918 13.0906 72.5302 13.1187 72.2203 13.1268C71.673 13.1429 71.18 13.0604 70.7413 12.8793C70.3026 12.6941 69.9545 12.4084 69.6969 12.022C69.4434 11.6357 69.3186 11.1527 69.3226 10.5732V1.50568ZM82.0802 13L78.5908 0.636363H80.9996L83.2272 9.72195H83.3419L85.7204 0.636363H87.9118L90.2964 9.72798H90.4051L92.6327 0.636363H95.0415L91.5521 13H89.3426L86.8675 4.32493H86.7709L84.2897 13H82.0802ZM98.2199 13.1871C97.6323 13.1871 97.1031 13.0825 96.6322 12.8732C96.1653 12.6599 95.7951 12.346 95.5214 11.9315C95.2517 11.5169 95.1169 11.0058 95.1169 10.3981C95.1169 9.87488 95.2135 9.44223 95.4067 9.10014C95.5999 8.75805 95.8635 8.48438 96.1975 8.27912C96.5316 8.07386 96.9079 7.91892 97.3264 7.81428C97.749 7.70561 98.1857 7.62713 98.6365 7.57883C99.1798 7.52249 99.6205 7.47218 99.9585 7.42791C100.297 7.37962 100.542 7.30717 100.695 7.21058C100.852 7.10997 100.93 6.95502 100.93 6.74574V6.70952C100.93 6.25473 100.796 5.90258 100.526 5.65305C100.256 5.40353 99.868 5.27876 99.3609 5.27876C98.8256 5.27876 98.401 5.39548 98.0871 5.62891C97.7772 5.86233 97.5679 6.13802 97.4593 6.45597L95.4188 6.16619C95.5798 5.60275 95.8454 5.13187 96.2156 4.75355C96.5859 4.37121 97.0387 4.08546 97.574 3.89631C98.1092 3.70312 98.7008 3.60653 99.3488 3.60653C99.7955 3.60653 100.24 3.65885 100.683 3.76349C101.126 3.86813 101.53 4.04119 101.896 4.28267C102.263 4.52012 102.556 4.8441 102.778 5.25462C103.003 5.66513 103.116 6.17827 103.116 6.79403V13H101.015V11.7262H100.943C100.81 11.9838 100.623 12.2253 100.381 12.4506C100.144 12.672 99.8438 12.8511 99.4816 12.9879C99.1234 13.1207 98.7029 13.1871 98.2199 13.1871ZM98.7874 11.5813C99.2261 11.5813 99.6064 11.4948 99.9284 11.3217C100.25 11.1446 100.498 10.9112 100.671 10.6214C100.848 10.3317 100.937 10.0157 100.937 9.67365V8.58097C100.868 8.63731 100.751 8.68963 100.586 8.73793C100.425 8.78622 100.244 8.82848 100.043 8.8647C99.8418 8.90092 99.6426 8.93312 99.4454 8.96129C99.2482 8.98946 99.0771 9.01361 98.9323 9.03374C98.6063 9.07801 98.3145 9.15045 98.0569 9.25107C97.7993 9.35168 97.5961 9.49254 97.4472 9.67365C97.2983 9.85073 97.2238 10.0801 97.2238 10.3619C97.2238 10.7643 97.3707 11.0682 97.6645 11.2734C97.9583 11.4787 98.3326 11.5813 98.7874 11.5813ZM107.499 0.636363V13H105.313V0.636363H107.499ZM111.931 0.636363V13H109.746V0.636363H111.931ZM118.284 13.1811C117.354 13.1811 116.551 12.9879 115.875 12.6016C115.203 12.2112 114.686 11.6598 114.323 10.9474C113.961 10.2311 113.78 9.3879 113.78 8.41797C113.78 7.46413 113.961 6.62701 114.323 5.9066C114.69 5.18217 115.201 4.61873 115.857 4.21626C116.513 3.80978 117.284 3.60653 118.169 3.60653C118.74 3.60653 119.28 3.6991 119.787 3.88423C120.298 4.06534 120.749 4.34706 121.139 4.7294C121.534 5.11174 121.843 5.59872 122.069 6.19034C122.294 6.77794 122.407 7.47822 122.407 8.29119V8.96129H114.806V7.48828H120.312C120.308 7.06972 120.217 6.69744 120.04 6.37145C119.863 6.04143 119.616 5.78184 119.298 5.59268C118.984 5.40353 118.618 5.30895 118.199 5.30895C117.752 5.30895 117.36 5.41761 117.022 5.63494C116.684 5.84825 116.42 6.12997 116.231 6.48011C116.046 6.82623 115.951 7.20656 115.947 7.62109V8.90696C115.947 9.44626 116.046 9.90909 116.243 10.2955C116.44 10.6778 116.716 10.9716 117.07 11.1768C117.424 11.3781 117.839 11.4787 118.314 11.4787C118.632 11.4787 118.92 11.4344 119.177 11.3459C119.435 11.2533 119.658 11.1185 119.847 10.9414C120.036 10.7643 120.179 10.545 120.276 10.2834L122.316 10.5128C122.188 11.0521 121.942 11.523 121.58 11.9254C121.222 12.3239 120.763 12.6338 120.203 12.8551C119.644 13.0724 119.004 13.1811 118.284 13.1811ZM128.886 3.72727V5.41761H123.555V3.72727H128.886ZM124.871 1.50568H127.057V10.2109C127.057 10.5047 127.101 10.7301 127.19 10.8871C127.282 11.04 127.403 11.1446 127.552 11.201C127.701 11.2573 127.866 11.2855 128.047 11.2855C128.184 11.2855 128.308 11.2754 128.421 11.2553C128.538 11.2352 128.626 11.2171 128.687 11.201L129.055 12.9094C128.938 12.9497 128.771 12.994 128.554 13.0423C128.341 13.0906 128.079 13.1187 127.769 13.1268C127.222 13.1429 126.729 13.0604 126.29 12.8793C125.851 12.6941 125.503 12.4084 125.246 12.022C124.992 11.6357 124.867 11.1527 124.871 10.5732V1.50568Z"/>
</mask>
<path d="M15.8022 4.80788H13.5444C13.48 4.43762 13.3613 4.10961 13.1882 3.82386C13.0152 3.53409 12.7998 3.28859 12.5423 3.08736C12.2847 2.88613 11.9909 2.7352 11.6609 2.63459C11.3349 2.52995 10.9827 2.47763 10.6044 2.47763C9.93229 2.47763 9.33665 2.64666 8.81747 2.98473C8.2983 3.31877 7.89181 3.80978 7.59801 4.45774C7.30421 5.10168 7.15732 5.88849 7.15732 6.81818C7.15732 7.76397 7.30421 8.56084 7.59801 9.20881C7.89583 9.85275 8.30232 10.3397 8.81747 10.6697C9.33665 10.9957 9.93028 11.1587 10.5984 11.1587C10.9686 11.1587 11.3147 11.1104 11.6367 11.0138C11.9627 10.9132 12.2545 10.7663 12.5121 10.5732C12.7737 10.38 12.993 10.1425 13.1701 9.8608C13.3512 9.57907 13.476 9.2571 13.5444 8.89489L15.8022 8.90696C15.7177 9.49455 15.5346 10.0459 15.2528 10.5611C14.9751 11.0762 14.6109 11.531 14.1602 11.9254C13.7094 12.3158 13.1822 12.6217 12.5785 12.843C11.9748 13.0604 11.3047 13.169 10.5682 13.169C9.48153 13.169 8.5116 12.9175 7.65838 12.4144C6.80516 11.9113 6.13305 11.1849 5.64205 10.2351C5.15104 9.28527 4.90554 8.14631 4.90554 6.81818C4.90554 5.48603 5.15305 4.34706 5.64808 3.40128C6.14311 2.45147 6.81723 1.72502 7.67045 1.22195C8.52367 0.718868 9.48958 0.467329 10.5682 0.467329C11.2564 0.467329 11.8963 0.56392 12.4879 0.757102C13.0795 0.950284 13.6068 1.23402 14.0696 1.60831C14.5324 1.97857 14.9128 2.43336 15.2106 2.97266C15.5124 3.50793 15.7096 4.11967 15.8022 4.80788ZM21.8014 13.1811C20.8959 13.1811 20.1111 12.9819 19.447 12.5835C18.7829 12.185 18.2678 11.6276 17.9015 10.9112C17.5393 10.1948 17.3582 9.35772 17.3582 8.39986C17.3582 7.442 17.5393 6.60286 17.9015 5.88246C18.2678 5.16205 18.7829 4.60263 19.447 4.20419C20.1111 3.80575 20.8959 3.60653 21.8014 3.60653C22.7069 3.60653 23.4917 3.80575 24.1558 4.20419C24.8199 4.60263 25.333 5.16205 25.6952 5.88246C26.0615 6.60286 26.2446 7.442 26.2446 8.39986C26.2446 9.35772 26.0615 10.1948 25.6952 10.9112C25.333 11.6276 24.8199 12.185 24.1558 12.5835C23.4917 12.9819 22.7069 13.1811 21.8014 13.1811ZM21.8135 11.4304C22.3045 11.4304 22.715 11.2956 23.045 11.0259C23.375 10.7522 23.6205 10.386 23.7815 9.9272C23.9465 9.46839 24.029 8.95727 24.029 8.39382C24.029 7.82635 23.9465 7.31321 23.7815 6.8544C23.6205 6.39157 23.375 6.02332 23.045 5.74964C22.715 5.47597 22.3045 5.33913 21.8135 5.33913C21.3104 5.33913 20.8918 5.47597 20.5578 5.74964C20.2278 6.02332 19.9803 6.39157 19.8153 6.8544C19.6543 7.31321 19.5738 7.82635 19.5738 8.39382C19.5738 8.95727 19.6543 9.46839 19.8153 9.9272C19.9803 10.386 20.2278 10.7522 20.5578 11.0259C20.8918 11.2956 21.3104 11.4304 21.8135 11.4304ZM30.2848 7.56676V13H28.0994V3.72727H30.1882V5.30291H30.2969C30.5102 4.78374 30.8503 4.37121 31.3171 4.06534C31.788 3.75947 32.3696 3.60653 33.0618 3.60653C33.7017 3.60653 34.2591 3.74337 34.734 4.01704C35.213 4.29072 35.5832 4.68714 35.8448 5.20632C36.1104 5.7255 36.2412 6.35535 36.2372 7.09588V13H34.0518V7.43395C34.0518 6.81416 33.8909 6.32919 33.5689 5.97905C33.2509 5.62891 32.8103 5.45383 32.2468 5.45383C31.8645 5.45383 31.5244 5.53835 31.2266 5.70739C30.9328 5.8724 30.7013 6.11186 30.5323 6.42578C30.3673 6.7397 30.2848 7.12003 30.2848 7.56676ZM40.6442 7.56676V13H38.4588V3.72727H40.5476V5.30291H40.6562C40.8696 4.78374 41.2096 4.37121 41.6765 4.06534C42.1474 3.75947 42.7289 3.60653 43.4212 3.60653C44.0611 3.60653 44.6185 3.74337 45.0934 4.01704C45.5723 4.29072 45.9426 4.68714 46.2042 5.20632C46.4698 5.7255 46.6006 6.35535 46.5966 7.09588V13H44.4112V7.43395C44.4112 6.81416 44.2502 6.32919 43.9283 5.97905C43.6103 5.62891 43.1696 5.45383 42.6062 5.45383C42.2238 5.45383 41.8838 5.53835 41.5859 5.70739C41.2921 5.8724 41.0607 6.11186 40.8917 6.42578C40.7267 6.7397 40.6442 7.12003 40.6442 7.56676ZM52.9233 13.1811C51.9936 13.1811 51.1907 12.9879 50.5146 12.6016C49.8424 12.2112 49.3253 11.6598 48.9631 10.9474C48.6009 10.2311 48.4197 9.3879 48.4197 8.41797C48.4197 7.46413 48.6009 6.62701 48.9631 5.9066C49.3293 5.18217 49.8404 4.61873 50.4964 4.21626C51.1525 3.80978 51.9232 3.60653 52.8086 3.60653C53.3801 3.60653 53.9194 3.6991 54.4265 3.88423C54.9376 4.06534 55.3884 4.34706 55.7788 4.7294C56.1732 5.11174 56.4831 5.59872 56.7085 6.19034C56.9338 6.77794 57.0465 7.47822 57.0465 8.29119V8.96129H49.446V7.48828H54.9517C54.9477 7.06972 54.8571 6.69744 54.68 6.37145C54.503 6.04143 54.2554 5.78184 53.9375 5.59268C53.6236 5.40353 53.2573 5.30895 52.8388 5.30895C52.392 5.30895 51.9996 5.41761 51.6616 5.63494C51.3235 5.84825 51.0599 6.12997 50.8707 6.48011C50.6856 6.82623 50.591 7.20656 50.587 7.62109V8.90696C50.587 9.44626 50.6856 9.90909 50.8828 10.2955C51.08 10.6778 51.3557 10.9716 51.7099 11.1768C52.064 11.3781 52.4786 11.4787 52.9535 11.4787C53.2714 11.4787 53.5592 11.4344 53.8168 11.3459C54.0743 11.2533 54.2977 11.1185 54.4869 10.9414C54.676 10.7643 54.8189 10.545 54.9155 10.2834L56.956 10.5128C56.8272 11.0521 56.5817 11.523 56.2195 11.9254C55.8613 12.3239 55.4025 12.6338 54.843 12.8551C54.2836 13.0724 53.6437 13.1811 52.9233 13.1811ZM62.9401 13.1811C62.0144 13.1811 61.2195 12.9779 60.5555 12.5714C59.8954 12.1649 59.3863 11.6035 59.0281 10.8871C58.674 10.1667 58.4969 9.33759 58.4969 8.39986C58.4969 7.4581 58.678 6.62701 59.0402 5.9066C59.4024 5.18217 59.9136 4.61873 60.5736 4.21626C61.2377 3.80978 62.0225 3.60653 62.928 3.60653C63.6806 3.60653 64.3467 3.74538 64.9262 4.02308C65.5098 4.29676 65.9746 4.68513 66.3208 5.18821C66.6669 5.68726 66.8641 6.27083 66.9124 6.93892H64.8236C64.7391 6.49219 64.5378 6.11991 64.2199 5.82209C63.906 5.52024 63.4854 5.36932 62.9582 5.36932C62.5115 5.36932 62.1191 5.49006 61.781 5.73153C61.4429 5.96899 61.1793 6.31108 60.9901 6.75781C60.805 7.20455 60.7124 7.73982 60.7124 8.36364C60.7124 8.9955 60.805 9.53883 60.9901 9.99361C61.1753 10.4444 61.4349 10.7925 61.7689 11.038C62.107 11.2795 62.5034 11.4002 62.9582 11.4002C63.2802 11.4002 63.5679 11.3398 63.8215 11.2191C64.079 11.0943 64.2944 10.9152 64.4674 10.6818C64.6405 10.4484 64.7592 10.1647 64.8236 9.83061H66.9124C66.8601 10.4866 66.6669 11.0682 66.3328 11.5753C65.9988 12.0784 65.544 12.4728 64.9685 12.7585C64.393 13.0402 63.7168 13.1811 62.9401 13.1811ZM73.3372 3.72727V5.41761H68.0066V3.72727H73.3372ZM69.3226 1.50568H71.508V10.2109C71.508 10.5047 71.5523 10.7301 71.6408 10.8871C71.7334 11.04 71.8541 11.1446 72.003 11.201C72.1519 11.2573 72.3169 11.2855 72.498 11.2855C72.6349 11.2855 72.7596 11.2754 72.8723 11.2553C72.9891 11.2352 73.0776 11.2171 73.138 11.201L73.5062 12.9094C73.3895 12.9497 73.2225 12.994 73.0051 13.0423C72.7918 13.0906 72.5302 13.1187 72.2203 13.1268C71.673 13.1429 71.18 13.0604 70.7413 12.8793C70.3026 12.6941 69.9545 12.4084 69.6969 12.022C69.4434 11.6357 69.3186 11.1527 69.3226 10.5732V1.50568ZM82.0802 13L78.5908 0.636363H80.9996L83.2272 9.72195H83.3419L85.7204 0.636363H87.9118L90.2964 9.72798H90.4051L92.6327 0.636363H95.0415L91.5521 13H89.3426L86.8675 4.32493H86.7709L84.2897 13H82.0802ZM98.2199 13.1871C97.6323 13.1871 97.1031 13.0825 96.6322 12.8732C96.1653 12.6599 95.7951 12.346 95.5214 11.9315C95.2517 11.5169 95.1169 11.0058 95.1169 10.3981C95.1169 9.87488 95.2135 9.44223 95.4067 9.10014C95.5999 8.75805 95.8635 8.48438 96.1975 8.27912C96.5316 8.07386 96.9079 7.91892 97.3264 7.81428C97.749 7.70561 98.1857 7.62713 98.6365 7.57883C99.1798 7.52249 99.6205 7.47218 99.9585 7.42791C100.297 7.37962 100.542 7.30717 100.695 7.21058C100.852 7.10997 100.93 6.95502 100.93 6.74574V6.70952C100.93 6.25473 100.796 5.90258 100.526 5.65305C100.256 5.40353 99.868 5.27876 99.3609 5.27876C98.8256 5.27876 98.401 5.39548 98.0871 5.62891C97.7772 5.86233 97.5679 6.13802 97.4593 6.45597L95.4188 6.16619C95.5798 5.60275 95.8454 5.13187 96.2156 4.75355C96.5859 4.37121 97.0387 4.08546 97.574 3.89631C98.1092 3.70312 98.7008 3.60653 99.3488 3.60653C99.7955 3.60653 100.24 3.65885 100.683 3.76349C101.126 3.86813 101.53 4.04119 101.896 4.28267C102.263 4.52012 102.556 4.8441 102.778 5.25462C103.003 5.66513 103.116 6.17827 103.116 6.79403V13H101.015V11.7262H100.943C100.81 11.9838 100.623 12.2253 100.381 12.4506C100.144 12.672 99.8438 12.8511 99.4816 12.9879C99.1234 13.1207 98.7029 13.1871 98.2199 13.1871ZM98.7874 11.5813C99.2261 11.5813 99.6064 11.4948 99.9284 11.3217C100.25 11.1446 100.498 10.9112 100.671 10.6214C100.848 10.3317 100.937 10.0157 100.937 9.67365V8.58097C100.868 8.63731 100.751 8.68963 100.586 8.73793C100.425 8.78622 100.244 8.82848 100.043 8.8647C99.8418 8.90092 99.6426 8.93312 99.4454 8.96129C99.2482 8.98946 99.0771 9.01361 98.9323 9.03374C98.6063 9.07801 98.3145 9.15045 98.0569 9.25107C97.7993 9.35168 97.5961 9.49254 97.4472 9.67365C97.2983 9.85073 97.2238 10.0801 97.2238 10.3619C97.2238 10.7643 97.3707 11.0682 97.6645 11.2734C97.9583 11.4787 98.3326 11.5813 98.7874 11.5813ZM107.499 0.636363V13H105.313V0.636363H107.499ZM111.931 0.636363V13H109.746V0.636363H111.931ZM118.284 13.1811C117.354 13.1811 116.551 12.9879 115.875 12.6016C115.203 12.2112 114.686 11.6598 114.323 10.9474C113.961 10.2311 113.78 9.3879 113.78 8.41797C113.78 7.46413 113.961 6.62701 114.323 5.9066C114.69 5.18217 115.201 4.61873 115.857 4.21626C116.513 3.80978 117.284 3.60653 118.169 3.60653C118.74 3.60653 119.28 3.6991 119.787 3.88423C120.298 4.06534 120.749 4.34706 121.139 4.7294C121.534 5.11174 121.843 5.59872 122.069 6.19034C122.294 6.77794 122.407 7.47822 122.407 8.29119V8.96129H114.806V7.48828H120.312C120.308 7.06972 120.217 6.69744 120.04 6.37145C119.863 6.04143 119.616 5.78184 119.298 5.59268C118.984 5.40353 118.618 5.30895 118.199 5.30895C117.752 5.30895 117.36 5.41761 117.022 5.63494C116.684 5.84825 116.42 6.12997 116.231 6.48011C116.046 6.82623 115.951 7.20656 115.947 7.62109V8.90696C115.947 9.44626 116.046 9.90909 116.243 10.2955C116.44 10.6778 116.716 10.9716 117.07 11.1768C117.424 11.3781 117.839 11.4787 118.314 11.4787C118.632 11.4787 118.92 11.4344 119.177 11.3459C119.435 11.2533 119.658 11.1185 119.847 10.9414C120.036 10.7643 120.179 10.545 120.276 10.2834L122.316 10.5128C122.188 11.0521 121.942 11.523 121.58 11.9254C121.222 12.3239 120.763 12.6338 120.203 12.8551C119.644 13.0724 119.004 13.1811 118.284 13.1811ZM128.886 3.72727V5.41761H123.555V3.72727H128.886ZM124.871 1.50568H127.057V10.2109C127.057 10.5047 127.101 10.7301 127.19 10.8871C127.282 11.04 127.403 11.1446 127.552 11.201C127.701 11.2573 127.866 11.2855 128.047 11.2855C128.184 11.2855 128.308 11.2754 128.421 11.2553C128.538 11.2352 128.626 11.2171 128.687 11.201L129.055 12.9094C128.938 12.9497 128.771 12.994 128.554 13.0423C128.341 13.0906 128.079 13.1187 127.769 13.1268C127.222 13.1429 126.729 13.0604 126.29 12.8793C125.851 12.6941 125.503 12.4084 125.246 12.022C124.992 11.6357 124.867 11.1527 124.871 10.5732V1.50568Z" fill="#111627"/>
<path d="M15.8022 4.80788V5.80788H16.9457L16.7933 4.67458L15.8022 4.80788ZM13.5444 4.80788L12.5592 4.97922L12.7033 5.80788H13.5444V4.80788ZM13.1882 3.82386L12.3297 4.33662L12.3329 4.3419L13.1882 3.82386ZM12.5423 3.08736L13.1579 2.29933L13.1579 2.29933L12.5423 3.08736ZM11.6609 2.63459L11.3552 3.58674L11.3622 3.58898L11.3692 3.59112L11.6609 2.63459ZM8.81747 2.98473L9.35857 3.82571L9.36314 3.82273L8.81747 2.98473ZM7.59801 4.45774L8.5078 4.87283L8.50877 4.87069L7.59801 4.45774ZM7.59801 9.20881L6.68723 9.62177L6.69038 9.62858L7.59801 9.20881ZM8.81747 10.6697L8.27802 11.5118L8.2857 11.5166L8.81747 10.6697ZM11.6367 11.0138L11.9241 11.9717L11.9316 11.9694L11.6367 11.0138ZM12.5121 10.5732L11.918 9.7687L11.9121 9.77315L12.5121 10.5732ZM13.1701 9.8608L12.3289 9.32001L12.3235 9.32862L13.1701 9.8608ZM13.5444 8.89489L13.5497 7.8949L12.7164 7.89044L12.5618 8.70928L13.5444 8.89489ZM15.8022 8.90696L16.792 9.04933L16.9554 7.91311L15.8075 7.90697L15.8022 8.90696ZM15.2528 10.5611L14.3755 10.0813L14.3726 10.0866L15.2528 10.5611ZM14.1602 11.9254L14.8148 12.6813L14.8187 12.678L14.1602 11.9254ZM12.5785 12.843L12.9172 13.7839L12.9227 13.7819L12.5785 12.843ZM7.65838 12.4144L8.16629 11.553L8.16629 11.553L7.65838 12.4144ZM5.64205 10.2351L4.75372 10.6943L4.75372 10.6943L5.64205 10.2351ZM5.64808 3.40128L6.53406 3.865L6.53487 3.86346L5.64808 3.40128ZM7.67045 1.22195L7.16255 0.360534L7.16255 0.360534L7.67045 1.22195ZM12.4879 0.757102L12.7983 -0.193504L12.7983 -0.193504L12.4879 0.757102ZM14.0696 1.60831L13.4408 2.38588L13.4449 2.38918L14.0696 1.60831ZM15.2106 2.97266L14.3352 3.4561L14.3395 3.46385L15.2106 2.97266ZM15.8022 3.80788H13.5444V5.80788H15.8022V3.80788ZM14.5296 4.63654C14.4465 4.15888 14.2887 3.71053 14.0436 3.30583L12.3329 4.3419C12.4339 4.50869 12.5135 4.71635 12.5592 4.97922L14.5296 4.63654ZM14.0468 3.31112C13.8125 2.9189 13.5159 2.57903 13.1579 2.29933L11.9266 3.87538C12.0838 3.99815 12.2178 4.14928 12.3297 4.33661L14.0468 3.31112ZM13.1579 2.29933C12.7983 2.01839 12.3933 1.81246 11.9525 1.67806L11.3692 3.59112C11.5884 3.65794 11.7711 3.75387 11.9266 3.87538L13.1579 2.29933ZM11.9665 1.68244C11.5319 1.54295 11.0757 1.47763 10.6044 1.47763V3.47763C10.8898 3.47763 11.1378 3.51694 11.3552 3.58674L11.9665 1.68244ZM10.6044 1.47763C9.75569 1.47763 8.96713 1.69396 8.2718 2.14673L9.36314 3.82273C9.70617 3.59936 10.1089 3.47763 10.6044 3.47763V1.47763ZM8.27638 2.14376C7.57183 2.59708 7.04812 3.24892 6.68726 4.04479L8.50877 4.87069C8.7355 4.37064 9.02476 4.04047 9.35856 3.8257L8.27638 2.14376ZM6.68823 4.04265C6.31944 4.85097 6.15732 5.78816 6.15732 6.81818H8.15732C8.15732 5.98883 8.28899 5.35239 8.50779 4.87283L6.68823 4.04265ZM6.15732 6.81818C6.15732 7.86179 6.31865 8.8088 6.68726 9.62176L8.50876 8.79586C8.28978 8.31288 8.15732 7.66614 8.15732 6.81818H6.15732ZM6.69038 9.62858C7.05516 10.4173 7.57814 11.0634 8.27804 11.5118L9.3569 9.82771C9.0265 9.61605 8.73651 9.2882 8.50564 8.78903L6.69038 9.62858ZM8.2857 11.5166C8.97843 11.9516 9.75968 12.1587 10.5984 12.1587V10.1587C10.1009 10.1587 9.69487 10.0399 9.34924 9.82285L8.2857 11.5166ZM10.5984 12.1587C11.0562 12.1587 11.4999 12.0989 11.9241 11.9717L11.3494 10.056C11.1296 10.122 10.8811 10.1587 10.5984 10.1587V12.1587ZM11.9316 11.9694C12.3609 11.8369 12.7571 11.6394 13.1121 11.3732L11.9121 9.77315C11.7519 9.89331 11.5645 9.98959 11.3418 10.0583L11.9316 11.9694ZM13.1061 11.3776C13.4705 11.1085 13.7748 10.7779 14.0167 10.393L12.3235 9.32862C12.2113 9.50713 12.0768 9.65146 11.918 9.76872L13.1061 11.3776ZM14.0113 10.4016C14.2686 10.0012 14.4371 9.55634 14.527 9.08049L12.5618 8.70928C12.5148 8.95787 12.4338 9.1569 12.3289 9.32004L14.0113 10.4016ZM13.539 9.89487L15.7969 9.90695L15.8075 7.90697L13.5497 7.8949L13.539 9.89487ZM14.8124 8.76459C14.7447 9.23522 14.5992 9.67215 14.3755 10.0813L16.1302 11.0409C16.4699 10.4197 16.6907 9.75389 16.792 9.04933L14.8124 8.76459ZM14.3726 10.0866C14.1529 10.494 13.8646 10.8553 13.5017 11.1728L14.8187 12.678C15.3572 12.2068 15.7973 11.6584 16.1331 11.0356L14.3726 10.0866ZM13.5055 11.1695C13.1532 11.4746 12.7332 11.7212 12.2342 11.9042L12.9227 13.7819C13.6312 13.5222 14.2656 13.157 14.8148 12.6813L13.5055 11.1695ZM12.2398 11.9022C11.7595 12.0751 11.206 12.169 10.5682 12.169V14.169C11.4033 14.169 12.1901 14.0457 12.9172 13.7839L12.2398 11.9022ZM10.5682 12.169C9.64232 12.169 8.85093 11.9567 8.16629 11.553L7.15047 13.2758C8.17227 13.8783 9.32075 14.169 10.5682 14.169V12.169ZM8.16629 11.553C7.4881 11.1531 6.94209 10.5723 6.53037 9.77587L4.75372 10.6943C5.32401 11.7975 6.12222 12.6695 7.15047 13.2758L8.16629 11.553ZM6.53037 9.77587C6.1284 8.99828 5.90554 8.02448 5.90554 6.81818H3.90554C3.90554 8.26813 4.17369 9.57227 4.75372 10.6943L6.53037 9.77587ZM5.90554 6.81818C5.90554 5.60828 6.13024 4.63653 6.53406 3.865L4.7621 2.93755C4.17587 4.0576 3.90554 5.36379 3.90554 6.81818H5.90554ZM6.53487 3.86346C6.95075 3.06552 7.4994 2.48369 8.17836 2.08336L7.16255 0.360534C6.13507 0.966357 5.33548 1.83742 4.7613 2.9391L6.53487 3.86346ZM8.17836 2.08336C8.86416 1.679 9.65183 1.46733 10.5682 1.46733V-0.532671C9.32734 -0.532671 8.18319 -0.24126 7.16255 0.360534L8.17836 2.08336ZM10.5682 1.46733C11.162 1.46733 11.6961 1.55052 12.1775 1.70771L12.7983 -0.193504C12.0965 -0.422676 11.3508 -0.532671 10.5682 -0.532671V1.46733ZM12.1775 1.70771C12.6587 1.86483 13.077 2.09163 13.4408 2.38587L14.6984 0.83075C14.1366 0.376408 13.5004 0.0357407 12.7983 -0.193504L12.1775 1.70771ZM13.4449 2.38918C13.8015 2.67444 14.0981 3.02678 14.3352 3.45608L16.086 2.48923C15.7274 1.83993 15.2634 1.28271 14.6943 0.827441L13.4449 2.38918ZM14.3395 3.46385C14.5714 3.87508 14.7333 4.36255 14.8111 4.94119L16.7933 4.67458C16.686 3.8768 16.4534 3.14078 16.0816 2.48146L14.3395 3.46385ZM19.447 12.5835L18.9325 13.4409L18.9325 13.4409L19.447 12.5835ZM17.9015 10.9112L17.0091 11.3624L17.0112 11.3664L17.9015 10.9112ZM17.9015 5.88246L17.0101 5.42927L17.0081 5.43325L17.9015 5.88246ZM19.447 4.20419L19.9615 5.06168L19.9615 5.06168L19.447 4.20419ZM24.1558 4.20419L23.6413 5.06168L23.6413 5.06168L24.1558 4.20419ZM25.6952 5.88246L24.8018 6.33167L24.8038 6.33564L25.6952 5.88246ZM25.6952 10.9112L24.8048 10.456L24.8028 10.46L25.6952 10.9112ZM24.1558 12.5835L23.6413 11.726L23.6413 11.726L24.1558 12.5835ZM23.045 11.0259L23.6778 11.8003L23.6833 11.7957L23.045 11.0259ZM23.7815 9.9272L22.8405 9.58876L22.8379 9.59611L23.7815 9.9272ZM23.7815 6.8544L22.837 7.18294L22.8405 7.19283L23.7815 6.8544ZM23.045 5.74964L23.6833 4.97989L23.6833 4.97989L23.045 5.74964ZM20.5578 5.74964L19.924 4.97609L19.9195 4.97989L20.5578 5.74964ZM19.8153 6.8544L18.8733 6.51858L18.8717 6.52332L19.8153 6.8544ZM19.8153 9.9272L18.8716 10.2583L18.8743 10.2656L19.8153 9.9272ZM20.5578 11.0259L19.9194 11.7957L19.9297 11.804L20.5578 11.0259ZM21.8014 12.1811C21.046 12.1811 20.4455 12.0164 19.9615 11.726L18.9325 13.4409C19.7766 13.9474 20.7457 14.1811 21.8014 14.1811V12.1811ZM19.9615 11.726C19.4643 11.4277 19.0765 11.0126 18.7919 10.456L17.0112 11.3664C17.4591 12.2426 18.1015 12.9424 18.9325 13.4409L19.9615 11.726ZM18.794 10.46C18.5149 9.90807 18.3582 9.23101 18.3582 8.39986H16.3582C16.3582 9.48442 16.5638 10.4816 17.0091 11.3624L18.794 10.46ZM18.3582 8.39986C18.3582 7.56888 18.5148 6.88883 18.795 6.33167L17.0081 5.43325C16.5638 6.3169 16.3582 7.31511 16.3582 8.39986H18.3582ZM18.793 6.33564C19.0779 5.77508 19.4658 5.35911 19.9615 5.06168L18.9325 3.3467C18.1001 3.84614 17.4576 4.54902 17.0101 5.42928L18.793 6.33564ZM19.9615 5.06168C20.4455 4.77128 21.046 4.60653 21.8014 4.60653V2.60653C20.7457 2.60653 19.7766 2.84023 18.9325 3.3467L19.9615 5.06168ZM21.8014 4.60653C22.5568 4.60653 23.1573 4.77128 23.6413 5.06168L24.6703 3.3467C23.8262 2.84023 22.8571 2.60653 21.8014 2.60653V4.60653ZM23.6413 5.06168C24.136 5.35852 24.521 5.77316 24.8018 6.33167L26.5887 5.43325C26.145 4.55094 25.5037 3.84673 24.6703 3.3467L23.6413 5.06168ZM24.8038 6.33564C25.0866 6.89188 25.2446 7.57048 25.2446 8.39986H27.2446C27.2446 7.31352 27.0363 6.31385 26.5866 5.42928L24.8038 6.33564ZM25.2446 8.39986C25.2446 9.22941 25.0865 9.90502 24.8048 10.456L26.5856 11.3664C27.0364 10.4847 27.2446 9.48602 27.2446 8.39986H25.2446ZM24.8028 10.46C24.5224 11.0145 24.1375 11.4283 23.6413 11.726L24.6703 13.4409C25.5023 12.9418 26.1436 12.2407 26.5876 11.3624L24.8028 10.46ZM23.6413 11.726C23.1573 12.0164 22.5568 12.1811 21.8014 12.1811V14.1811C22.8571 14.1811 23.8262 13.9474 24.6703 13.4409L23.6413 11.726ZM21.8135 12.4304C22.4982 12.4304 23.1425 12.2376 23.6777 11.8003L22.4123 10.2515C22.2875 10.3535 22.1108 10.4304 21.8135 10.4304V12.4304ZM23.6833 11.7957C24.171 11.3913 24.5123 10.8648 24.7251 10.2583L22.8379 9.59611C22.7288 9.90717 22.5791 10.1132 22.4067 10.2562L23.6833 11.7957ZM24.7225 10.2656C24.9321 9.68281 25.029 9.05499 25.029 8.39382H23.029C23.029 8.85955 22.9609 9.25398 22.8405 9.58877L24.7225 10.2656ZM25.029 8.39382C25.029 7.72953 24.9324 7.09952 24.7225 6.51598L22.8405 7.19283C22.9607 7.5269 23.029 7.92317 23.029 8.39382H25.029ZM24.726 6.52588C24.5139 5.91593 24.1729 5.38585 23.6833 4.97989L22.4067 6.5194C22.5772 6.66078 22.7272 6.86722 22.837 7.18292L24.726 6.52588ZM23.6833 4.97989C23.1482 4.53607 22.5018 4.33913 21.8135 4.33913V6.33913C22.1071 6.33913 22.2818 6.41587 22.4067 6.5194L23.6833 4.97989ZM21.8135 4.33913C21.1193 4.33913 20.4655 4.5325 19.924 4.9761L21.1915 6.52319C21.3182 6.41944 21.5015 6.33913 21.8135 6.33913V4.33913ZM19.9195 4.97989C19.4319 5.38423 19.0897 5.91162 18.8733 6.51859L20.7572 7.19022C20.8708 6.87152 21.0237 6.66241 21.1961 6.5194L19.9195 4.97989ZM18.8717 6.52332C18.6677 7.10463 18.5738 7.73204 18.5738 8.39382H20.5738C20.5738 7.92065 20.6409 7.52179 20.7589 7.18549L18.8717 6.52332ZM18.5738 8.39382C18.5738 9.05245 18.6679 9.67769 18.8717 10.2583L20.7589 9.59611C20.6406 9.2591 20.5738 8.86209 20.5738 8.39382H18.5738ZM18.8743 10.2656C19.0913 10.8691 19.4337 11.3929 19.9195 11.7957L21.1961 10.2562C21.0218 10.1116 20.8692 9.90287 20.7562 9.58877L18.8743 10.2656ZM19.9297 11.804C20.4711 12.2411 21.1229 12.4304 21.8135 12.4304V10.4304C21.4979 10.4304 21.3126 10.35 21.1859 10.2478L19.9297 11.804ZM30.2848 13V14H31.2848V13H30.2848ZM28.0994 13H27.0994V14H28.0994V13ZM28.0994 3.72727V2.72727H27.0994V3.72727H28.0994ZM30.1882 3.72727H31.1882V2.72727H30.1882V3.72727ZM30.1882 5.30291H29.1882V6.30291H30.1882V5.30291ZM30.2969 5.30291V6.30291H30.9671L31.2218 5.68294L30.2969 5.30291ZM31.3171 4.06534L30.7724 3.22673L30.7691 3.22888L31.3171 4.06534ZM34.734 4.01704L34.2347 4.88348L34.2379 4.88529L34.734 4.01704ZM35.8448 5.20632L34.9518 5.65631L34.9546 5.6618L35.8448 5.20632ZM36.2372 7.09588L35.2372 7.09045V7.09588H36.2372ZM36.2372 13V14H37.2372V13H36.2372ZM34.0518 13H33.0518V14H34.0518V13ZM33.5689 5.97905L32.8286 6.65131L32.8328 6.65592L33.5689 5.97905ZM31.2266 5.70739L31.7163 6.57929L31.7202 6.57707L31.2266 5.70739ZM30.5323 6.42578L29.6518 5.95166L29.6472 5.9605L30.5323 6.42578ZM29.2848 7.56676V13H31.2848V7.56676H29.2848ZM30.2848 12H28.0994V14H30.2848V12ZM29.0994 13V3.72727H27.0994V13H29.0994ZM28.0994 4.72727H30.1882V2.72727H28.0994V4.72727ZM29.1882 3.72727V5.30291H31.1882V3.72727H29.1882ZM30.1882 6.30291H30.2969V4.30291H30.1882V6.30291ZM31.2218 5.68294C31.3589 5.34933 31.5681 5.09639 31.8651 4.9018L30.7691 3.22888C30.1324 3.64603 29.6614 4.21814 29.3719 4.92288L31.2218 5.68294ZM31.8619 4.90395C32.1364 4.72558 32.5177 4.60653 33.0618 4.60653V2.60653C32.2214 2.60653 31.4396 2.79336 30.7724 3.22673L31.8619 4.90395ZM33.0618 4.60653C33.5561 4.60653 33.9354 4.711 34.2347 4.88348L35.2333 3.15061C34.5828 2.77574 33.8473 2.60653 33.0618 2.60653V4.60653ZM34.2379 4.88529C34.5369 5.05615 34.7735 5.30253 34.9518 5.6563L36.7379 4.75634C36.3929 4.07176 35.889 3.52529 35.2302 3.1488L34.2379 4.88529ZM34.9546 5.6618C35.1302 6.00505 35.2406 6.468 35.2372 7.09045L37.2372 7.10132C37.2419 6.2427 37.0907 5.44595 36.7351 4.75084L34.9546 5.6618ZM35.2372 7.09588V13H37.2372V7.09588H35.2372ZM36.2372 12H34.0518V14H36.2372V12ZM35.0518 13V7.43395H33.0518V13H35.0518ZM35.0518 7.43395C35.0518 6.64155 34.843 5.88729 34.305 5.30217L32.8328 6.65592C32.9387 6.77109 33.0518 6.98676 33.0518 7.43395H35.0518ZM34.3092 5.3068C33.7655 4.70805 33.0334 4.45383 32.2468 4.45383V6.45383C32.5871 6.45383 32.7364 6.54976 32.8286 6.6513L34.3092 5.3068ZM32.2468 4.45383C31.712 4.45383 31.1982 4.57364 30.733 4.8377L31.7202 6.57707C31.8506 6.50307 32.0169 6.45383 32.2468 6.45383V4.45383ZM30.7369 4.83549C30.268 5.09886 29.9053 5.48095 29.6518 5.95168L31.4128 6.89988C31.4974 6.74277 31.5976 6.64593 31.7163 6.57928L30.7369 4.83549ZM29.6472 5.9605C29.3896 6.4504 29.2848 6.99909 29.2848 7.56676H31.2848C31.2848 7.24097 31.345 7.029 31.4175 6.89106L29.6472 5.9605ZM40.6442 13V14H41.6442V13H40.6442ZM38.4588 13H37.4588V14H38.4588V13ZM38.4588 3.72727V2.72727H37.4588V3.72727H38.4588ZM40.5476 3.72727H41.5476V2.72727H40.5476V3.72727ZM40.5476 5.30291H39.5476V6.30291H40.5476V5.30291ZM40.6562 5.30291V6.30291H41.3265L41.5812 5.68294L40.6562 5.30291ZM41.6765 4.06534L41.1318 3.22673L41.1285 3.22888L41.6765 4.06534ZM45.0934 4.01704L44.5941 4.88348L44.5973 4.88529L45.0934 4.01704ZM46.2042 5.20632L45.3111 5.65631L45.3139 5.6618L46.2042 5.20632ZM46.5966 7.09588L45.5966 7.09045V7.09588H46.5966ZM46.5966 13V14H47.5966V13H46.5966ZM44.4112 13H43.4112V14H44.4112V13ZM43.9283 5.97905L43.1879 6.65131L43.1922 6.65592L43.9283 5.97905ZM41.5859 5.70739L42.0756 6.57929L42.0795 6.57707L41.5859 5.70739ZM40.8917 6.42578L40.0112 5.95166L40.0065 5.9605L40.8917 6.42578ZM39.6442 7.56676V13H41.6442V7.56676H39.6442ZM40.6442 12H38.4588V14H40.6442V12ZM39.4588 13V3.72727H37.4588V13H39.4588ZM38.4588 4.72727H40.5476V2.72727H38.4588V4.72727ZM39.5476 3.72727V5.30291H41.5476V3.72727H39.5476ZM40.5476 6.30291H40.6562V4.30291H40.5476V6.30291ZM41.5812 5.68294C41.7183 5.34933 41.9275 5.09639 42.2245 4.9018L41.1285 3.22888C40.4918 3.64603 40.0208 4.21814 39.7313 4.92288L41.5812 5.68294ZM42.2212 4.90395C42.4958 4.72558 42.8771 4.60653 43.4212 4.60653V2.60653C42.5807 2.60653 41.7989 2.79336 41.1318 3.22673L42.2212 4.90395ZM43.4212 4.60653C43.9154 4.60653 44.2948 4.711 44.5941 4.88348L45.5927 3.15061C44.9422 2.77574 44.2067 2.60653 43.4212 2.60653V4.60653ZM44.5973 4.88529C44.8963 5.05615 45.1329 5.30253 45.3112 5.6563L47.0972 4.75634C46.7523 4.07176 46.2484 3.52529 45.5895 3.1488L44.5973 4.88529ZM45.3139 5.6618C45.4896 6.00505 45.6 6.468 45.5966 7.09045L47.5966 7.10132C47.6012 6.2427 47.4501 5.44595 47.0944 4.75084L45.3139 5.6618ZM45.5966 7.09588V13H47.5966V7.09588H45.5966ZM46.5966 12H44.4112V14H46.5966V12ZM45.4112 13V7.43395H43.4112V13H45.4112ZM45.4112 7.43395C45.4112 6.64155 45.2024 5.88729 44.6644 5.30217L43.1922 6.65592C43.2981 6.77109 43.4112 6.98676 43.4112 7.43395H45.4112ZM44.6686 5.3068C44.1249 4.70805 43.3928 4.45383 42.6062 4.45383V6.45383C42.9465 6.45383 43.0957 6.54976 43.1879 6.6513L44.6686 5.3068ZM42.6062 4.45383C42.0714 4.45383 41.5576 4.57364 41.0923 4.8377L42.0795 6.57707C42.2099 6.50307 42.3763 6.45383 42.6062 6.45383V4.45383ZM41.0962 4.83549C40.6273 5.09886 40.2647 5.48095 40.0112 5.95168L41.7722 6.89988C41.8568 6.74277 41.957 6.64593 42.0756 6.57928L41.0962 4.83549ZM40.0065 5.9605C39.749 6.4504 39.6442 6.99909 39.6442 7.56676H41.6442C41.6442 7.24097 41.7043 7.029 41.7769 6.89106L40.0065 5.9605ZM50.5146 12.6016L50.0123 13.4663L50.0184 13.4698L50.5146 12.6016ZM48.9631 10.9474L48.0707 11.3987L48.0717 11.4007L48.9631 10.9474ZM48.9631 5.9066L48.0706 5.45543L48.0696 5.4574L48.9631 5.9066ZM50.4964 4.21626L51.0194 5.06865L51.0232 5.06631L50.4964 4.21626ZM54.4265 3.88423L54.0835 4.82363L54.0925 4.82681L54.4265 3.88423ZM55.7788 4.7294L55.0791 5.44385L55.0827 5.44741L55.7788 4.7294ZM56.7085 6.19034L55.774 6.54634L55.7748 6.54846L56.7085 6.19034ZM57.0465 8.96129V9.96129H58.0465V8.96129H57.0465ZM49.446 8.96129H48.446V9.96129H49.446V8.96129ZM49.446 7.48828V6.48828H48.446V7.48828H49.446ZM54.9517 7.48828V8.48828H55.9614L55.9517 7.47867L54.9517 7.48828ZM54.68 6.37145L53.7989 6.84427L53.8013 6.84878L54.68 6.37145ZM53.9375 5.59268L53.4214 6.44922L53.4262 6.45209L53.9375 5.59268ZM51.6616 5.63494L52.1952 6.4807L52.2023 6.47612L51.6616 5.63494ZM50.8707 6.48011L49.9909 6.0048L49.989 6.00846L50.8707 6.48011ZM50.587 7.62109L49.587 7.61139V7.62109H50.587ZM50.8828 10.2955L49.9921 10.7501L49.9941 10.7539L50.8828 10.2955ZM51.7099 11.1768L51.2084 12.0421L51.2159 12.0463L51.7099 11.1768ZM53.8168 11.3459L54.1419 12.2917L54.155 12.287L53.8168 11.3459ZM54.4869 10.9414L53.8034 10.2114L54.4869 10.9414ZM54.9155 10.2834L55.0272 9.28964L54.2487 9.20212L53.9774 9.93701L54.9155 10.2834ZM56.956 10.5128L57.9286 10.7451L58.1912 9.64536L57.0677 9.51904L56.956 10.5128ZM56.2195 11.9254L55.4762 11.2565L55.4758 11.2569L56.2195 11.9254ZM54.843 12.8551L55.2052 13.7873L55.211 13.785L54.843 12.8551ZM52.9233 12.1811C52.1338 12.1811 51.5089 12.018 51.0107 11.7333L50.0184 13.4698C50.8725 13.9579 51.8534 14.1811 52.9233 14.1811V12.1811ZM51.0168 11.7368C50.5163 11.4461 50.1319 11.0399 49.8545 10.4942L48.0717 11.4007C48.5186 12.2797 49.1686 12.9763 50.0123 13.4663L51.0168 11.7368ZM49.8555 10.4962C49.5772 9.94594 49.4197 9.26341 49.4197 8.41797H47.4197C47.4197 9.51239 47.6245 10.5162 48.0707 11.3987L49.8555 10.4962ZM49.4197 8.41797C49.4197 7.59175 49.5761 6.91353 49.8565 6.35581L48.0696 5.4574C47.6256 6.34049 47.4197 7.33651 47.4197 8.41797H49.4197ZM49.8555 6.35778C50.1429 5.78928 50.5301 5.36879 51.0194 5.06864L49.9735 3.36389C49.1507 3.86866 48.5157 4.57507 48.0706 5.45543L49.8555 6.35778ZM51.0232 5.06631C51.4988 4.77161 52.0813 4.60653 52.8086 4.60653V2.60653C51.7651 2.60653 50.8062 2.84794 49.9697 3.36622L51.0232 5.06631ZM52.8086 4.60653C53.27 4.60653 53.6927 4.68088 54.0836 4.82359L54.7694 2.94487C54.1461 2.71732 53.4902 2.60653 52.8086 2.60653V4.60653ZM54.0925 4.82681C54.4655 4.95898 54.7917 5.16242 55.0791 5.44384L56.4785 4.01497C55.985 3.53171 55.4097 3.1717 54.7605 2.94165L54.0925 4.82681ZM55.0827 5.44741C55.3573 5.71354 55.5927 6.07058 55.774 6.54634L57.6429 5.83435C57.3734 5.12686 56.9891 4.50994 56.4748 4.01139L55.0827 5.44741ZM55.7748 6.54846C55.9456 6.9938 56.0465 7.56665 56.0465 8.29119H58.0465C58.0465 7.38979 57.9221 6.56207 57.6421 5.83222L55.7748 6.54846ZM56.0465 8.29119V8.96129H58.0465V8.29119H56.0465ZM57.0465 7.96129H49.446V9.96129H57.0465V7.96129ZM50.446 8.96129V7.48828H48.446V8.96129H50.446ZM49.446 8.48828H54.9517V6.48828H49.446V8.48828ZM55.9517 7.47867C55.9463 6.91787 55.8234 6.38134 55.5588 5.89412L53.8013 6.84878C53.8908 7.01355 53.9491 7.22157 53.9518 7.4979L55.9517 7.47867ZM55.5612 5.89863C55.2993 5.41063 54.9249 5.01651 54.4488 4.73328L53.4262 6.45209C53.586 6.54717 53.7066 6.67223 53.7989 6.84427L55.5612 5.89863ZM54.4536 4.73616C53.9628 4.44041 53.4129 4.30895 52.8388 4.30895V6.30895C53.1018 6.30895 53.2844 6.36665 53.4214 6.44921L54.4536 4.73616ZM52.8388 4.30895C52.2224 4.30895 51.6378 4.46139 51.1208 4.79376L52.2023 6.47612C52.3614 6.37383 52.5617 6.30895 52.8388 6.30895V4.30895ZM51.128 4.78921C50.6453 5.09377 50.2621 5.5028 49.9909 6.00481L51.7506 6.95542C51.8577 6.75715 52.0018 6.60272 52.1952 6.48067L51.128 4.78921ZM49.989 6.00846C49.7235 6.50478 49.5925 7.04492 49.5871 7.61139L51.587 7.6308C51.5895 7.3682 51.6477 7.14768 51.7525 6.95177L49.989 6.00846ZM49.587 7.62109V8.90696H51.587V7.62109H49.587ZM49.587 8.90696C49.587 9.56663 49.7077 10.1928 49.9921 10.7501L51.7735 9.84083C51.6635 9.62535 51.587 9.32589 51.587 8.90696H49.587ZM49.9941 10.7539C50.2742 11.2969 50.6803 11.736 51.2084 12.042L52.2113 10.3116C52.0311 10.2072 51.8859 10.0587 51.7716 9.83705L49.9941 10.7539ZM51.2159 12.0463C51.7439 12.3464 52.3343 12.4787 52.9535 12.4787V10.4787C52.6228 10.4787 52.3841 10.4098 52.2039 10.3074L51.2159 12.0463ZM52.9535 12.4787C53.3639 12.4787 53.7638 12.4215 54.1418 12.2916L53.4917 10.4002C53.3546 10.4473 53.1789 10.4787 52.9535 10.4787V12.4787ZM54.155 12.287C54.5334 12.1509 54.8761 11.9468 55.1703 11.6714L53.8034 10.2114C53.7193 10.2901 53.6152 10.3557 53.4786 10.4048L54.155 12.287ZM55.1703 11.6714C55.4816 11.38 55.7073 11.0259 55.8536 10.6298L53.9774 9.93701C53.9305 10.064 53.8705 10.1486 53.8034 10.2114L55.1703 11.6714ZM54.8038 11.2771L56.8442 11.5065L57.0677 9.51904L55.0272 9.28964L54.8038 11.2771ZM55.9833 10.2805C55.8923 10.6614 55.7239 10.9812 55.4762 11.2565L56.9628 12.5944C57.4395 12.0647 57.762 11.4427 57.9286 10.7451L55.9833 10.2805ZM55.4758 11.2569C55.2331 11.5269 54.9086 11.7537 54.4751 11.9253L55.211 13.785C55.8963 13.5138 56.4895 13.1208 56.9631 12.594L55.4758 11.2569ZM54.4809 11.923C54.0576 12.0875 53.544 12.1811 52.9233 12.1811V14.1811C53.7434 14.1811 54.5097 14.0574 55.2052 13.7872L54.4809 11.923ZM60.5555 12.5714L60.0311 13.4229L60.0334 13.4243L60.5555 12.5714ZM59.0281 10.8871L58.1307 11.3283L58.1337 11.3343L59.0281 10.8871ZM59.0402 5.9066L59.9336 6.35582L59.9346 6.35382L59.0402 5.9066ZM60.5736 4.21626L61.0942 5.07006L61.0957 5.06916L60.5736 4.21626ZM64.9262 4.02308L64.4941 4.92493L64.5016 4.92847L64.9262 4.02308ZM66.3208 5.18821L65.4969 5.75502L65.499 5.75811L66.3208 5.18821ZM66.9124 6.93892V7.93892H67.9873L67.9098 6.86682L66.9124 6.93892ZM64.8236 6.93892L63.841 7.12481L63.995 7.93892H64.8236V6.93892ZM64.2199 5.82209L63.5267 6.54298L63.5363 6.55191L64.2199 5.82209ZM61.781 5.73153L62.3558 6.54987L62.3622 6.54527L61.781 5.73153ZM60.9901 6.75781L60.0693 6.36789L60.0663 6.37497L60.9901 6.75781ZM60.9901 9.99361L60.0639 10.3706L60.0651 10.3735L60.9901 9.99361ZM61.7689 11.038L61.1767 11.8439L61.1877 11.8517L61.7689 11.038ZM63.8215 11.2191L64.2514 12.122L64.2574 12.1191L63.8215 11.2191ZM64.4674 10.6818L63.6641 10.0863L63.6641 10.0863L64.4674 10.6818ZM64.8236 9.83061V8.83061H63.998L63.8417 9.64132L64.8236 9.83061ZM66.9124 9.83061L67.9092 9.91011L67.9953 8.83061H66.9124V9.83061ZM66.3328 11.5753L67.1659 12.1284L67.1679 12.1254L66.3328 11.5753ZM64.9685 12.7585L65.4082 13.6567L65.4132 13.6542L64.9685 12.7585ZM62.9401 12.1811C62.1635 12.1811 61.557 12.012 61.0776 11.7185L60.0334 13.4243C60.8821 13.9438 61.8653 14.1811 62.9401 14.1811V12.1811ZM61.0799 11.7199C60.5839 11.4144 60.2004 10.9955 59.9226 10.4399L58.1337 11.3343C58.5723 12.2114 59.207 12.9153 60.0311 13.4229L61.0799 11.7199ZM59.9256 10.4459C59.6493 9.88405 59.4969 9.21026 59.4969 8.39986H57.4969C57.4969 9.46493 57.6986 10.4493 58.1307 11.3283L59.9256 10.4459ZM59.4969 8.39986C59.4969 7.58794 59.6524 6.91522 59.9336 6.35581L58.1468 5.4574C57.7036 6.3388 57.4969 7.32825 57.4969 8.39986H59.4969ZM59.9346 6.35382C60.2171 5.78892 60.6023 5.37 61.0942 5.07006L60.053 3.36247C59.2248 3.86745 58.5878 4.57543 58.1458 5.45939L59.9346 6.35382ZM61.0957 5.06916C61.5784 4.77365 62.1762 4.60653 62.928 4.60653V2.60653C61.8687 2.60653 60.8969 2.84591 60.0515 3.36337L61.0957 5.06916ZM62.928 4.60653C63.5565 4.60653 64.0707 4.72199 64.4941 4.9249L65.3583 3.12127C64.6227 2.76877 63.8047 2.60653 62.928 2.60653V4.60653ZM64.5016 4.92847C64.9337 5.13109 65.2571 5.40648 65.4969 5.75502L67.1446 4.6214C66.6922 3.96379 66.0859 3.46242 65.3508 3.1177L64.5016 4.92847ZM65.499 5.75811C65.7328 6.09512 65.8782 6.50269 65.915 7.01102L67.9098 6.86682C67.8499 6.03897 67.601 5.2794 67.1425 4.61831L65.499 5.75811ZM66.9124 5.93892H64.8236V7.93892H66.9124V5.93892ZM65.8062 6.75303C65.6841 6.10758 65.3834 5.54171 64.9035 5.09226L63.5363 6.55191C63.6923 6.69811 63.7941 6.8768 63.841 7.12481L65.8062 6.75303ZM64.913 5.10125C64.375 4.5839 63.6861 4.36932 62.9582 4.36932V6.36932C63.2847 6.36932 63.437 6.45658 63.5268 6.54292L64.913 5.10125ZM62.9582 4.36932C62.3196 4.36932 61.7204 4.54589 61.1997 4.9178L62.3622 6.54527C62.5177 6.43422 62.7033 6.36932 62.9582 6.36932V4.36932ZM61.2062 4.91322C60.69 5.27583 60.3185 5.77928 60.0693 6.3679L61.911 7.14772C62.0401 6.84288 62.1959 6.66214 62.3558 6.54985L61.2062 4.91322ZM60.0663 6.37497C59.8186 6.97271 59.7124 7.64486 59.7124 8.36364H61.7124C61.7124 7.83478 61.7914 7.43638 61.914 7.14065L60.0663 6.37497ZM59.7124 8.36364C59.7124 9.08933 59.8183 9.76719 60.0639 10.3706L61.9163 9.61657C61.7917 9.31047 61.7124 8.90167 61.7124 8.36364H59.7124ZM60.0651 10.3735C60.3076 10.9639 60.6705 11.4718 61.1767 11.8438L62.3611 10.2322C62.1992 10.1132 62.0429 9.9248 61.9152 9.61369L60.0651 10.3735ZM61.1877 11.8517C61.7115 12.2259 62.3157 12.4002 62.9582 12.4002V10.4002C62.6911 10.4002 62.5025 10.3331 62.3501 10.2243L61.1877 11.8517ZM62.9582 12.4002C63.4071 12.4002 63.8452 12.3154 64.2514 12.122L63.3915 10.3162C63.2907 10.3643 63.1532 10.4002 62.9582 10.4002V12.4002ZM64.2574 12.1191C64.6625 11.9229 65.0031 11.6384 65.2707 11.2774L63.6641 10.0863C63.5856 10.1921 63.4956 10.2658 63.3855 10.3191L64.2574 12.1191ZM65.2707 11.2774C65.547 10.9047 65.7176 10.4761 65.8055 10.0199L63.8417 9.64132C63.8008 9.85325 63.7339 9.99205 63.6641 10.0863L65.2707 11.2774ZM64.8236 10.8306H66.9124V8.83061H64.8236V10.8306ZM65.9155 9.75111C65.8755 10.2536 65.7314 10.6704 65.4977 11.0252L67.1679 12.1254C67.6023 11.4659 67.8446 10.7197 67.9092 9.91011L65.9155 9.75111ZM65.4998 11.0221C65.2691 11.3695 64.9525 11.65 64.5238 11.8628L65.4132 13.6542C66.1356 13.2955 66.7285 12.7872 67.1659 12.1284L65.4998 11.0221ZM64.5288 11.8604C64.1162 12.0624 63.5963 12.1811 62.9401 12.1811V14.1811C63.8374 14.1811 64.6697 14.0181 65.4081 13.6567L64.5288 11.8604ZM73.3372 3.72727H74.3372V2.72727H73.3372V3.72727ZM73.3372 5.41761V6.41761H74.3372V5.41761H73.3372ZM68.0066 5.41761H67.0066V6.41761H68.0066V5.41761ZM68.0066 3.72727V2.72727H67.0066V3.72727H68.0066ZM69.3226 1.50568V0.505682H68.3226V1.50568H69.3226ZM71.508 1.50568H72.508V0.505682H71.508V1.50568ZM71.6408 10.8871L70.7698 11.3784L70.7774 11.3918L70.7853 11.4049L71.6408 10.8871ZM72.003 11.201L71.6491 12.1363L71.6491 12.1363L72.003 11.201ZM72.8723 11.2553L72.7024 10.2698L72.6965 10.2709L72.8723 11.2553ZM73.138 11.201L74.1155 10.9903L73.8944 9.96434L72.8803 10.2348L73.138 11.201ZM73.5062 12.9094L73.8322 13.8548L74.6706 13.5657L74.4838 12.6987L73.5062 12.9094ZM73.0051 13.0423L72.7882 12.0661L72.7843 12.0669L73.0051 13.0423ZM72.2203 13.1268L72.1944 12.1271L72.1909 12.1272L72.2203 13.1268ZM70.7413 12.8793L70.3525 13.8006L70.3597 13.8036L70.7413 12.8793ZM69.6969 12.022L68.8608 12.5707L68.8649 12.5767L69.6969 12.022ZM69.3226 10.5732L70.3226 10.5801V10.5732H69.3226ZM72.3372 3.72727V5.41761H74.3372V3.72727H72.3372ZM73.3372 4.41761H68.0066V6.41761H73.3372V4.41761ZM69.0066 5.41761V3.72727H67.0066V5.41761H69.0066ZM68.0066 4.72727H73.3372V2.72727H68.0066V4.72727ZM69.3226 2.50568H71.508V0.505682H69.3226V2.50568ZM70.508 1.50568V10.2109H72.508V1.50568H70.508ZM70.508 10.2109C70.508 10.5799 70.5593 11.0051 70.7698 11.3784L72.5118 10.3958C72.5321 10.4318 72.5294 10.4428 72.5224 10.4076C72.5157 10.3731 72.508 10.3101 72.508 10.2109H70.508ZM70.7853 11.4049C70.9787 11.7244 71.2655 11.9911 71.6491 12.1363L72.3569 10.2657C72.393 10.2794 72.4274 10.3 72.4557 10.3246C72.483 10.3482 72.4949 10.367 72.4963 10.3693L70.7853 11.4049ZM71.6491 12.1363C71.9256 12.2409 72.2125 12.2855 72.498 12.2855V10.2855C72.4214 10.2855 72.3783 10.2738 72.3569 10.2657L71.6491 12.1363ZM72.498 12.2855C72.6828 12.2855 72.8675 12.272 73.0481 12.2398L72.6965 10.2709C72.6518 10.2789 72.587 10.2855 72.498 10.2855V12.2855ZM73.0422 12.2408C73.1674 12.2192 73.2911 12.1951 73.3956 12.1672L72.8803 10.2348C72.864 10.2391 72.8107 10.2512 72.7024 10.2699L73.0422 12.2408ZM72.1604 11.4117L72.5287 13.1202L74.4838 12.6987L74.1155 10.9903L72.1604 11.4117ZM73.1802 11.9641C73.1168 11.9859 72.9929 12.0206 72.7882 12.0661L73.2221 14.0184C73.4521 13.9673 73.6622 13.9135 73.8322 13.8548L73.1802 11.9641ZM72.7843 12.0669C72.6554 12.0961 72.4635 12.1201 72.1944 12.1271L72.2463 14.1264C72.597 14.1173 72.9283 14.085 73.226 14.0176L72.7843 12.0669ZM72.1909 12.1272C71.7628 12.1398 71.4129 12.0746 71.1229 11.9549L70.3597 13.8036C70.9471 14.0461 71.5832 14.1459 72.2497 14.1263L72.1909 12.1272ZM71.1301 11.9579C70.867 11.8469 70.675 11.6864 70.529 11.4673L68.8649 12.5767C69.234 13.1304 69.7382 13.5413 70.3525 13.8006L71.1301 11.9579ZM70.533 11.4734C70.4123 11.2894 70.3196 11.0125 70.3226 10.5801L68.3226 10.5662C68.3176 11.2929 68.4745 11.9819 68.8609 12.5707L70.533 11.4734ZM70.3226 10.5732V1.50568H68.3226V10.5732H70.3226ZM82.0802 13L81.1178 13.2716L81.3233 14H82.0802V13ZM78.5908 0.636363V-0.363637H77.2695L77.6284 0.90798L78.5908 0.636363ZM80.9996 0.636363L81.9708 0.398234L81.784 -0.363637H80.9996V0.636363ZM83.2272 9.72195L82.256 9.96008L82.4427 10.7219H83.2272V9.72195ZM83.3419 9.72195V10.7219H84.1138L84.3093 9.97521L83.3419 9.72195ZM85.7204 0.636363V-0.363637H84.9485L84.753 0.383104L85.7204 0.636363ZM87.9118 0.636363L88.8791 0.38266L88.6834 -0.363637H87.9118V0.636363ZM90.2964 9.72798L89.3291 9.98169L89.5249 10.728H90.2964V9.72798ZM90.4051 9.72798V10.728H91.1897L91.3764 9.96596L90.4051 9.72798ZM92.6327 0.636363V-0.363637H91.8482L91.6615 0.398383L92.6327 0.636363ZM95.0415 0.636363L96.0039 0.90798L96.3627 -0.363637H95.0415V0.636363ZM91.5521 13V14H92.3089L92.5145 13.2716L91.5521 13ZM89.3426 13L88.381 13.2744L88.588 14H89.3426V13ZM86.8675 4.32493L87.8291 4.05056L87.622 3.32493H86.8675V4.32493ZM86.7709 4.32493V3.32493H86.0168L85.8094 4.04994L86.7709 4.32493ZM84.2897 13V14H85.0438L85.2511 13.275L84.2897 13ZM83.0426 12.7284L79.5532 0.364747L77.6284 0.90798L81.1178 13.2716L83.0426 12.7284ZM78.5908 1.63636H80.9996V-0.363637H78.5908V1.63636ZM80.0283 0.874493L82.256 9.96008L84.1984 9.48382L81.9708 0.398234L80.0283 0.874493ZM83.2272 10.7219H83.3419V8.72195H83.2272V10.7219ZM84.3093 9.97521L86.6878 0.889622L84.753 0.383104L82.3745 9.46869L84.3093 9.97521ZM85.7204 1.63636H87.9118V-0.363637H85.7204V1.63636ZM86.9446 0.890066L89.3291 9.98169L91.2637 9.47428L88.8791 0.38266L86.9446 0.890066ZM90.2964 10.728H90.4051V8.72798H90.2964V10.728ZM91.3764 9.96596L93.604 0.874344L91.6615 0.398383L89.4338 9.49L91.3764 9.96596ZM92.6327 1.63636H95.0415V-0.363637H92.6327V1.63636ZM94.0791 0.364747L90.5897 12.7284L92.5145 13.2716L96.0039 0.90798L94.0791 0.364747ZM91.5521 12H89.3426V14H91.5521V12ZM90.3042 12.7256L87.8291 4.05056L85.9058 4.5993L88.381 13.2744L90.3042 12.7256ZM86.8675 3.32493H86.7709V5.32493H86.8675V3.32493ZM85.8094 4.04994L83.3282 12.725L85.2511 13.275L87.7323 4.59991L85.8094 4.04994ZM84.2897 12H82.0802V14H84.2897V12ZM96.6322 12.8732L96.2166 13.7828L96.2261 13.787L96.6322 12.8732ZM95.5214 11.9315L94.6831 12.4767L94.6869 12.4824L95.5214 11.9315ZM95.4067 9.10014L94.5359 8.60842L94.5359 8.60842L95.4067 9.10014ZM96.1975 8.27912L95.674 7.42711L95.674 7.42711L96.1975 8.27912ZM97.3264 7.81428L97.569 8.78444L97.5755 8.78277L97.3264 7.81428ZM98.6365 7.57883L98.5333 6.58416L98.5299 6.58453L98.6365 7.57883ZM99.9585 7.42791L100.088 8.41951L100.1 8.41786L99.9585 7.42791ZM100.695 7.21058L101.229 8.05609L101.235 8.05246L100.695 7.21058ZM100.526 5.65305L101.205 4.91909L101.205 4.91909L100.526 5.65305ZM98.0871 5.62891L97.4904 4.82643L97.4854 4.83015L98.0871 5.62891ZM97.4593 6.45597L97.3186 7.44603L98.1379 7.56238L98.4055 6.77937L97.4593 6.45597ZM95.4188 6.16619L94.4572 5.89147L94.142 6.99491L95.2782 7.15626L95.4188 6.16619ZM96.2156 4.75355L96.9303 5.45302L96.934 5.44922L96.2156 4.75355ZM97.574 3.89631L97.9072 4.83919L97.9134 4.83692L97.574 3.89631ZM101.896 4.28267L101.346 5.11756L101.352 5.12174L101.896 4.28267ZM102.778 5.25462L101.898 5.72924L101.901 5.73588L102.778 5.25462ZM103.116 13V14H104.116V13H103.116ZM101.015 13H100.015V14H101.015V13ZM101.015 11.7262H102.015V10.7262H101.015V11.7262ZM100.943 11.7262V10.7262H100.333L100.054 11.2679L100.943 11.7262ZM100.381 12.4506L101.063 13.1821L101.063 13.1817L100.381 12.4506ZM99.4816 12.9879L99.8293 13.9256L99.835 13.9234L99.4816 12.9879ZM99.9284 11.3217L100.402 12.2026L100.41 12.1979L99.9284 11.3217ZM100.671 10.6214L99.8176 10.1L99.8124 10.1087L100.671 10.6214ZM100.937 8.58097H101.937V6.46198L100.301 7.80904L100.937 8.58097ZM100.586 8.73793L100.305 7.77817L100.299 7.7801L100.586 8.73793ZM100.043 8.8647L100.22 9.84889L100.22 9.84888L100.043 8.8647ZM98.9323 9.03374L99.0668 10.0246L99.0698 10.0242L98.9323 9.03374ZM98.0569 9.25107L97.6931 8.31961L97.6931 8.31961L98.0569 9.25107ZM97.4472 9.67365L98.2126 10.3173L98.2196 10.3088L97.4472 9.67365ZM97.6645 11.2734L97.0918 12.0932L97.0918 12.0932L97.6645 11.2734ZM98.2199 12.1871C97.7526 12.1871 97.3646 12.1044 97.0383 11.9594L96.2261 13.787C96.8416 14.0606 97.512 14.1871 98.2199 14.1871V12.1871ZM97.0478 11.9637C96.7454 11.8255 96.5228 11.6332 96.3559 11.3805L94.6869 12.4824C95.0674 13.0588 95.5852 13.4943 96.2166 13.7828L97.0478 11.9637ZM96.3597 11.3862C96.2175 11.1676 96.1169 10.8567 96.1169 10.3981H94.1169C94.1169 11.1549 94.286 11.8663 94.6831 12.4767L96.3597 11.3862ZM96.1169 10.3981C96.1169 9.992 96.1925 9.74225 96.2774 9.59186L94.5359 8.60842C94.2345 9.14222 94.1169 9.75776 94.1169 10.3981H96.1169ZM96.2774 9.59186C96.3875 9.39703 96.5317 9.24746 96.7211 9.13113L95.674 7.42711C95.1952 7.72129 94.8123 8.11907 94.5359 8.60842L96.2774 9.59186ZM96.7211 9.13113C96.9598 8.98446 97.2397 8.86674 97.569 8.78442L97.0839 6.84413C96.5761 6.97109 96.1034 7.16327 95.674 7.42711L96.7211 9.13113ZM97.5755 8.78277C97.9495 8.6866 98.3384 8.61649 98.743 8.57314L98.5299 6.58453C98.033 6.63777 97.5486 6.72462 97.0774 6.84578L97.5755 8.78277ZM98.7396 8.5735C99.2872 8.51671 99.7378 8.46536 100.088 8.41945L99.8287 6.43638C99.5031 6.47901 99.0723 6.52827 98.5333 6.58417L98.7396 8.5735ZM100.1 8.41786C100.475 8.36422 100.893 8.26839 101.229 8.05607L100.161 6.36509C100.187 6.34841 100.181 6.35825 100.113 6.37824C100.049 6.39712 99.953 6.41855 99.8171 6.43796L100.1 8.41786ZM101.235 8.05246C101.718 7.74285 101.93 7.24642 101.93 6.74574H99.9305C99.9305 6.72521 99.9347 6.65552 99.9795 6.56707C100.027 6.47375 100.095 6.40733 100.155 6.3687L101.235 8.05246ZM101.93 6.74574V6.70952H99.9305V6.74574H101.93ZM101.93 6.70952C101.93 6.04719 101.726 5.40132 101.205 4.91909L99.8468 6.38702C99.865 6.40384 99.9305 6.46228 99.9305 6.70952H101.93ZM101.205 4.91909C100.69 4.44264 100.023 4.27876 99.3609 4.27876V6.27876C99.7127 6.27876 99.8224 6.36442 99.8468 6.38702L101.205 4.91909ZM99.3609 4.27876C98.6885 4.27876 98.0303 4.42501 97.4904 4.82644L98.6838 6.43137C98.7718 6.36595 98.9628 6.27876 99.3609 6.27876V4.27876ZM97.4854 4.83015C97.0411 5.16482 96.696 5.59721 96.513 6.13256L98.4055 6.77937C98.4399 6.67883 98.5133 6.55985 98.6887 6.42766L97.4854 4.83015ZM97.5999 5.4659L95.5594 5.17613L95.2782 7.15626L97.3186 7.44603L97.5999 5.4659ZM96.3803 6.44091C96.5006 6.01992 96.6884 5.70015 96.9303 5.45301L95.501 4.05409C95.0023 4.56358 94.6589 5.18557 94.4572 5.89147L96.3803 6.44091ZM96.934 5.44922C97.1896 5.18529 97.5077 4.98033 97.9071 4.83917L97.2408 2.95345C96.5697 3.1906 95.9822 3.55714 95.4973 4.05788L96.934 5.44922ZM97.9134 4.83692C98.3259 4.68807 98.8007 4.60653 99.3488 4.60653V2.60653C98.601 2.60653 97.8926 2.71818 97.2345 2.95569L97.9134 4.83692ZM99.3488 4.60653C99.7167 4.60653 100.084 4.64953 100.453 4.73668L100.913 2.79031C100.396 2.66818 99.8744 2.60653 99.3488 2.60653V4.60653ZM100.453 4.73668C100.786 4.81536 101.081 4.94297 101.346 5.11753L102.447 3.44781C101.979 3.13942 101.466 2.92091 100.913 2.79031L100.453 4.73668ZM101.352 5.12174C101.568 5.26162 101.75 5.45606 101.898 5.72923L103.658 4.78C103.363 4.23215 102.957 3.77863 102.44 3.44359L101.352 5.12174ZM101.901 5.73588C102.024 5.9597 102.116 6.29527 102.116 6.79403H104.116C104.116 6.06127 103.982 5.37056 103.654 4.77336L101.901 5.73588ZM102.116 6.79403V13H104.116V6.79403H102.116ZM103.116 12H101.015V14H103.116V12ZM102.015 13V11.7262H100.015V13H102.015ZM101.015 10.7262H100.943V12.7262H101.015V10.7262ZM100.054 11.2679C99.9804 11.4102 99.8679 11.5618 99.6988 11.7196L101.063 13.1817C101.377 12.8887 101.639 12.5574 101.831 12.1845L100.054 11.2679ZM99.6992 11.7192C99.5734 11.8365 99.3917 11.9529 99.1282 12.0525L99.835 13.9234C100.296 13.7493 100.714 13.5075 101.063 13.1821L99.6992 11.7192ZM99.134 12.0503C98.9121 12.1326 98.6142 12.1871 98.2199 12.1871V14.1871C98.7915 14.1871 99.3348 14.1089 99.8293 13.9255L99.134 12.0503ZM98.7874 12.5813C99.3584 12.5813 99.9078 12.4681 100.402 12.2026L99.4549 10.4409C99.3049 10.5215 99.0937 10.5813 98.7874 10.5813V12.5813ZM100.41 12.1979C100.874 11.9431 101.257 11.5898 101.529 11.1342L99.8124 10.1087C99.7383 10.2327 99.6271 10.3462 99.4464 10.4455L100.41 12.1979ZM101.524 11.1429C101.798 10.6949 101.937 10.1983 101.937 9.67365H99.9365C99.9365 9.83317 99.898 9.96845 99.8176 10.1L101.524 11.1429ZM101.937 9.67365V8.58097H99.9365V9.67365H101.937ZM100.301 7.80904C100.332 7.78347 100.357 7.76781 100.37 7.76005C100.384 7.75209 100.391 7.74906 100.389 7.74995C100.387 7.75074 100.379 7.75399 100.365 7.75921C100.35 7.76437 100.331 7.77079 100.305 7.77819L100.867 9.69766C101.063 9.64037 101.342 9.54271 101.572 9.35289L100.301 7.80904ZM100.299 7.7801C100.181 7.81551 100.038 7.84962 99.8659 7.88052L100.22 9.84888C100.451 9.80734 100.67 9.75693 100.874 9.69575L100.299 7.7801ZM99.8659 7.88052C99.6762 7.91466 99.4889 7.94492 99.304 7.97134L99.5868 9.95124C99.7963 9.92132 100.007 9.88719 100.22 9.84889L99.8659 7.88052ZM99.304 7.97134C99.1076 7.99939 98.9379 8.02335 98.7947 8.04324L99.0698 10.0242C99.2164 10.0039 99.3888 9.97954 99.5868 9.95124L99.304 7.97134ZM98.7977 8.04283C98.4075 8.09582 98.0368 8.18533 97.6931 8.31961L98.4208 10.1825C98.5922 10.1156 98.805 10.0602 99.0668 10.0246L98.7977 8.04283ZM97.6931 8.31961C97.3049 8.47124 96.9503 8.70344 96.6748 9.03854L98.2196 10.3088C98.2419 10.2816 98.2938 10.2321 98.4208 10.1825L97.6931 8.31961ZM96.6818 9.03005C96.3503 9.42428 96.2238 9.8979 96.2238 10.3619H98.2238C98.2238 10.3354 98.2256 10.3166 98.2273 10.3045C98.2291 10.2926 98.2308 10.2873 98.2308 10.2872C98.2308 10.2872 98.2305 10.2882 98.2297 10.2901C98.2288 10.2921 98.2276 10.2947 98.2259 10.2979C98.2222 10.3044 98.2176 10.3112 98.2125 10.3173L96.6818 9.03005ZM96.2238 10.3619C96.2238 11.0443 96.4941 11.6756 97.0918 12.0932L98.2372 10.4537C98.2271 10.4466 98.2254 10.4438 98.2278 10.4465C98.2303 10.4495 98.2329 10.4534 98.2343 10.4564C98.2379 10.4638 98.2238 10.4411 98.2238 10.3619H96.2238ZM97.0918 12.0932C97.5937 12.4439 98.1829 12.5813 98.7874 12.5813V10.5813C98.4823 10.5813 98.3229 10.5135 98.2372 10.4537L97.0918 12.0932ZM107.499 0.636363H108.499V-0.363637H107.499V0.636363ZM107.499 13V14H108.499V13H107.499ZM105.313 13H104.313V14H105.313V13ZM105.313 0.636363V-0.363637H104.313V0.636363H105.313ZM106.499 0.636363V13H108.499V0.636363H106.499ZM107.499 12H105.313V14H107.499V12ZM106.313 13V0.636363H104.313V13H106.313ZM105.313 1.63636H107.499V-0.363637H105.313V1.63636ZM111.931 0.636363H112.931V-0.363637H111.931V0.636363ZM111.931 13V14H112.931V13H111.931ZM109.746 13H108.746V14H109.746V13ZM109.746 0.636363V-0.363637H108.746V0.636363H109.746ZM110.931 0.636363V13H112.931V0.636363H110.931ZM111.931 12H109.746V14H111.931V12ZM110.746 13V0.636363H108.746V13H110.746ZM109.746 1.63636H111.931V-0.363637H109.746V1.63636ZM115.875 12.6016L115.373 13.4663L115.379 13.4698L115.875 12.6016ZM114.323 10.9474L113.431 11.3987L113.432 11.4007L114.323 10.9474ZM114.323 5.9066L113.431 5.45543L113.43 5.4574L114.323 5.9066ZM115.857 4.21626L116.38 5.06865L116.384 5.06631L115.857 4.21626ZM119.787 3.88423L119.444 4.82363L119.453 4.82681L119.787 3.88423ZM121.139 4.7294L120.439 5.44385L120.443 5.44741L121.139 4.7294ZM122.069 6.19034L121.134 6.54634L121.135 6.54846L122.069 6.19034ZM122.407 8.96129V9.96129H123.407V8.96129H122.407ZM114.806 8.96129H113.806V9.96129H114.806V8.96129ZM114.806 7.48828V6.48828H113.806V7.48828H114.806ZM120.312 7.48828V8.48828H121.322L121.312 7.47867L120.312 7.48828ZM120.04 6.37145L119.159 6.84427L119.162 6.84878L120.04 6.37145ZM119.298 5.59268L118.782 6.44922L118.787 6.45209L119.298 5.59268ZM117.022 5.63494L117.556 6.4807L117.563 6.47612L117.022 5.63494ZM116.231 6.48011L115.351 6.0048L115.349 6.00846L116.231 6.48011ZM115.947 7.62109L114.947 7.61139V7.62109H115.947ZM116.243 10.2955L115.352 10.7501L115.354 10.7539L116.243 10.2955ZM117.07 11.1768L116.569 12.0421L116.576 12.0463L117.07 11.1768ZM119.177 11.3459L119.502 12.2917L119.515 12.287L119.177 11.3459ZM119.847 10.9414L119.164 10.2114L119.847 10.9414ZM120.276 10.2834L120.388 9.28964L119.609 9.20212L119.338 9.93701L120.276 10.2834ZM122.316 10.5128L123.289 10.7451L123.552 9.64536L122.428 9.51904L122.316 10.5128ZM121.58 11.9254L120.837 11.2565L120.836 11.2569L121.58 11.9254ZM120.203 12.8551L120.566 13.7873L120.571 13.785L120.203 12.8551ZM118.284 12.1811C117.494 12.1811 116.869 12.018 116.371 11.7333L115.379 13.4698C116.233 13.9579 117.214 14.1811 118.284 14.1811V12.1811ZM116.377 11.7368C115.877 11.4461 115.492 11.0399 115.215 10.4942L113.432 11.4007C113.879 12.2797 114.529 12.9763 115.373 13.4663L116.377 11.7368ZM115.216 10.4962C114.938 9.94594 114.78 9.26341 114.78 8.41797H112.78C112.78 9.51239 112.985 10.5162 113.431 11.3987L115.216 10.4962ZM114.78 8.41797C114.78 7.59175 114.936 6.91353 115.217 6.35581L113.43 5.4574C112.986 6.34049 112.78 7.33651 112.78 8.41797H114.78ZM115.216 6.35778C115.503 5.78928 115.89 5.36879 116.38 5.06864L115.334 3.36389C114.511 3.86866 113.876 4.57507 113.431 5.45543L115.216 6.35778ZM116.384 5.06631C116.859 4.77161 117.442 4.60653 118.169 4.60653V2.60653C117.125 2.60653 116.167 2.84794 115.33 3.36622L116.384 5.06631ZM118.169 4.60653C118.63 4.60653 119.053 4.68088 119.444 4.82359L120.13 2.94487C119.506 2.71732 118.851 2.60653 118.169 2.60653V4.60653ZM119.453 4.82681C119.826 4.95898 120.152 5.16242 120.439 5.44384L121.839 4.01497C121.345 3.53171 120.77 3.1717 120.121 2.94165L119.453 4.82681ZM120.443 5.44741C120.718 5.71354 120.953 6.07058 121.134 6.54634L123.003 5.83435C122.734 5.12686 122.349 4.50994 121.835 4.01139L120.443 5.44741ZM121.135 6.54846C121.306 6.9938 121.407 7.56665 121.407 8.29119H123.407C123.407 7.38979 123.282 6.56207 123.002 5.83222L121.135 6.54846ZM121.407 8.29119V8.96129H123.407V8.29119H121.407ZM122.407 7.96129H114.806V9.96129H122.407V7.96129ZM115.806 8.96129V7.48828H113.806V8.96129H115.806ZM114.806 8.48828H120.312V6.48828H114.806V8.48828ZM121.312 7.47867C121.307 6.91787 121.184 6.38134 120.919 5.89412L119.162 6.84878C119.251 7.01355 119.309 7.22157 119.312 7.4979L121.312 7.47867ZM120.922 5.89863C120.66 5.41063 120.285 5.01651 119.809 4.73328L118.787 6.45209C118.946 6.54717 119.067 6.67223 119.159 6.84427L120.922 5.89863ZM119.814 4.73616C119.323 4.44041 118.773 4.30895 118.199 4.30895V6.30895C118.462 6.30895 118.645 6.36665 118.782 6.44921L119.814 4.73616ZM118.199 4.30895C117.583 4.30895 116.998 4.46139 116.481 4.79376L117.563 6.47612C117.722 6.37383 117.922 6.30895 118.199 6.30895V4.30895ZM116.488 4.78921C116.006 5.09377 115.622 5.5028 115.351 6.00481L117.111 6.95542C117.218 6.75715 117.362 6.60272 117.556 6.48067L116.488 4.78921ZM115.349 6.00846C115.084 6.50478 114.953 7.04492 114.947 7.61139L116.947 7.6308C116.95 7.3682 117.008 7.14768 117.113 6.95177L115.349 6.00846ZM114.947 7.62109V8.90696H116.947V7.62109H114.947ZM114.947 8.90696C114.947 9.56663 115.068 10.1928 115.352 10.7501L117.134 9.84083C117.024 9.62535 116.947 9.32589 116.947 8.90696H114.947ZM115.354 10.7539C115.635 11.2969 116.041 11.736 116.569 12.042L117.572 10.3116C117.391 10.2072 117.246 10.0587 117.132 9.83705L115.354 10.7539ZM116.576 12.0463C117.104 12.3464 117.695 12.4787 118.314 12.4787V10.4787C117.983 10.4787 117.744 10.4098 117.564 10.3074L116.576 12.0463ZM118.314 12.4787C118.724 12.4787 119.124 12.4215 119.502 12.2916L118.852 10.4002C118.715 10.4473 118.539 10.4787 118.314 10.4787V12.4787ZM119.515 12.287C119.894 12.1509 120.236 11.9468 120.531 11.6714L119.164 10.2114C119.08 10.2901 118.976 10.3557 118.839 10.4048L119.515 12.287ZM120.531 11.6714C120.842 11.38 121.068 11.0259 121.214 10.6298L119.338 9.93701C119.291 10.064 119.231 10.1486 119.164 10.2114L120.531 11.6714ZM120.164 11.2771L122.205 11.5065L122.428 9.51904L120.388 9.28964L120.164 11.2771ZM121.344 10.2805C121.253 10.6614 121.084 10.9812 120.837 11.2565L122.323 12.5944C122.8 12.0647 123.122 11.4427 123.289 10.7451L121.344 10.2805ZM120.836 11.2569C120.593 11.5269 120.269 11.7537 119.835 11.9253L120.571 13.785C121.257 13.5138 121.85 13.1208 122.323 12.594L120.836 11.2569ZM119.841 11.923C119.418 12.0875 118.904 12.1811 118.284 12.1811V14.1811C119.104 14.1811 119.87 14.0574 120.566 13.7872L119.841 11.923ZM128.886 3.72727H129.886V2.72727H128.886V3.72727ZM128.886 5.41761V6.41761H129.886V5.41761H128.886ZM123.555 5.41761H122.555V6.41761H123.555V5.41761ZM123.555 3.72727V2.72727H122.555V3.72727H123.555ZM124.871 1.50568V0.505682H123.871V1.50568H124.871ZM127.057 1.50568H128.057V0.505682H127.057V1.50568ZM127.19 10.8871L126.319 11.3784L126.326 11.3918L126.334 11.4049L127.19 10.8871ZM127.552 11.201L127.198 12.1363L127.198 12.1363L127.552 11.201ZM128.421 11.2553L128.251 10.2698L128.245 10.2709L128.421 11.2553ZM128.687 11.201L129.664 10.9903L129.443 9.96434L128.429 10.2348L128.687 11.201ZM129.055 12.9094L129.381 13.8548L130.219 13.5657L130.033 12.6987L129.055 12.9094ZM128.554 13.0423L128.337 12.0661L128.333 12.0669L128.554 13.0423ZM127.769 13.1268L127.743 12.1271L127.74 12.1272L127.769 13.1268ZM126.29 12.8793L125.901 13.8006L125.909 13.8036L126.29 12.8793ZM125.246 12.022L124.41 12.5707L124.414 12.5767L125.246 12.022ZM124.871 10.5732L125.871 10.5801V10.5732H124.871ZM127.886 3.72727V5.41761H129.886V3.72727H127.886ZM128.886 4.41761H123.555V6.41761H128.886V4.41761ZM124.555 5.41761V3.72727H122.555V5.41761H124.555ZM123.555 4.72727H128.886V2.72727H123.555V4.72727ZM124.871 2.50568H127.057V0.505682H124.871V2.50568ZM126.057 1.50568V10.2109H128.057V1.50568H126.057ZM126.057 10.2109C126.057 10.5799 126.108 11.0051 126.319 11.3784L128.061 10.3958C128.081 10.4318 128.078 10.4428 128.071 10.4076C128.064 10.3731 128.057 10.3101 128.057 10.2109H126.057ZM126.334 11.4049C126.528 11.7244 126.814 11.9911 127.198 12.1363L127.906 10.2657C127.942 10.2794 127.976 10.3 128.005 10.3246C128.032 10.3482 128.044 10.367 128.045 10.3693L126.334 11.4049ZM127.198 12.1363C127.474 12.2409 127.761 12.2855 128.047 12.2855V10.2855C127.97 10.2855 127.927 10.2738 127.906 10.2657L127.198 12.1363ZM128.047 12.2855C128.232 12.2855 128.416 12.272 128.597 12.2398L128.245 10.2709C128.201 10.2789 128.136 10.2855 128.047 10.2855V12.2855ZM128.591 12.2408C128.716 12.2192 128.84 12.1951 128.944 12.1672L128.429 10.2348C128.413 10.2391 128.36 10.2512 128.251 10.2699L128.591 12.2408ZM127.709 11.4117L128.077 13.1202L130.033 12.6987L129.664 10.9903L127.709 11.4117ZM128.729 11.9641C128.666 11.9859 128.542 12.0206 128.337 12.0661L128.771 14.0184C129.001 13.9673 129.211 13.9135 129.381 13.8548L128.729 11.9641ZM128.333 12.0669C128.204 12.0961 128.012 12.1201 127.743 12.1271L127.795 14.1264C128.146 14.1173 128.477 14.085 128.775 14.0176L128.333 12.0669ZM127.74 12.1272C127.312 12.1398 126.962 12.0746 126.672 11.9549L125.909 13.8036C126.496 14.0461 127.132 14.1459 127.799 14.1263L127.74 12.1272ZM126.679 11.9579C126.416 11.8469 126.224 11.6864 126.078 11.4673L124.414 12.5767C124.783 13.1304 125.287 13.5413 125.901 13.8006L126.679 11.9579ZM126.082 11.4734C125.961 11.2894 125.868 11.0125 125.871 10.5801L123.871 10.5662C123.866 11.2929 124.023 11.9819 124.41 12.5707L126.082 11.4734ZM125.871 10.5732V1.50568H123.871V10.5732H125.871Z" fill="#E0D5FF" mask="url(#path-1-outside-1_119_34)"/>
</g>
<defs>
<filter id="filter0_d_119_34" x="0.905762" y="0.467346" width="132.149" height="20.7198" filterUnits="userSpaceOnUse" color-interpolation-filters="sRGB">
<feFlood flood-opacity="0" result="BackgroundImageFix"/>
<feColorMatrix in="SourceAlpha" type="matrix" values="0 0 0 0 0 0 0 0 0 0 0 0 0 0 0 0 0 0 127 0" result="hardAlpha"/>
<feOffset dy="4"/>
<feGaussianBlur stdDeviation="2"/>
<feComposite in2="hardAlpha" operator="out"/>
<feColorMatrix type="matrix" values="0 0 0 0 0 0 0 0 0 0 0 0 0 0 0 0 0 0 0.25 0"/>
<feBlend mode="normal" in2="BackgroundImageFix" result="effect1_dropShadow_119_34"/>
<feBlend mode="normal" in="SourceGraphic" in2="effect1_dropShadow_119_34" result="shape"/>
</filter>
</defs>
</svg>
